<svg width="489" height="294" viewBox="0 0 489 294" fill="none" xmlns="http://www.w3.org/2000/svg">
<rect width="489" height="294" fill="#F2FFFF"/>
<path d="M148.98 38.8C150.313 38.8 151.34 39.2867 152.06 40.26C152.793 41.2333 153.16 42.6133 153.16 44.4C153.16 46.24 152.793 47.6667 152.06 48.68C151.34 49.6933 150.313 50.2 148.98 50.2C147.513 50.2 146.427 49.62 145.72 48.46V53.8H143.92V39H145.28L145.58 40.88C146.3 39.4933 147.433 38.8 148.98 38.8ZM148.5 48.6C149.513 48.6 150.233 48.3 150.66 47.7C151.087 47.0867 151.3 46.0533 151.3 44.6C151.3 43.0933 151.087 42.02 150.66 41.38C150.233 40.7267 149.513 40.4 148.5 40.4C147.487 40.4 146.767 40.7067 146.34 41.32C145.927 41.92 145.72 42.9467 145.72 44.4C145.72 45.9067 145.933 46.9867 146.36 47.64C146.787 48.28 147.5 48.6 148.5 48.6ZM166.333 40.56C164.24 40.56 162.493 41.12 161.093 42.24V48.4H165.253V50H156.453V48.4H159.293V40.6H157.053V39H160.653L160.993 41.18C161.606 40.38 162.4 39.7467 163.373 39.28C164.36 38.8133 165.346 38.58 166.333 38.58V40.56ZM175.846 34.38V37.06H173.426V34.38H175.846ZM175.526 48.4H178.566V50H169.766V48.4H173.726V40.6H170.366V39H175.526V48.4ZM188.299 38.8C189.246 38.8 189.979 39.08 190.499 39.64C191.032 40.2 191.299 41.0267 191.299 42.12V50H189.519V42.36C189.519 41.0133 188.919 40.34 187.719 40.34C187.132 40.34 186.572 40.5267 186.039 40.9C185.519 41.2733 184.886 41.9333 184.139 42.88V50H182.359V39H183.699L184.039 41.58C185.186 39.7267 186.606 38.8 188.299 38.8ZM203.852 40.6H199.052V46.3C199.052 47.06 199.232 47.6267 199.592 48C199.952 48.36 200.559 48.54 201.412 48.54C202.265 48.54 203.079 48.3667 203.852 48.02V49.74C202.972 50.0467 202.099 50.2 201.232 50.2C199.912 50.2 198.919 49.8733 198.252 49.22C197.585 48.5533 197.252 47.66 197.252 46.54V40.6H194.712V39.44L197.252 39L197.672 36.54H199.052V39H203.852V40.6Z" fill="#FF8A00"/>
<path d="M212.325 43.84C212.325 47.36 213.378 50.3467 215.485 52.8H213.585C212.465 51.36 211.645 49.9533 211.125 48.58C210.618 47.2067 210.365 45.7333 210.365 44.16C210.365 42.48 210.618 40.9267 211.125 39.5C211.645 38.0733 212.465 36.64 213.585 35.2H215.485C213.378 37.6533 212.325 40.5333 212.325 43.84ZM340.335 44.16C340.335 40.64 339.281 37.6533 337.175 35.2H339.075C340.195 36.64 341.008 38.0467 341.515 39.42C342.035 40.7933 342.295 42.2667 342.295 43.84C342.295 45.52 342.035 47.0733 341.515 48.5C341.008 49.9267 340.195 51.36 339.075 52.8H337.175C339.281 50.3467 340.335 47.4667 340.335 44.16Z" fill="#2F6B6B"/>
<path d="M228.138 42.98C228.138 42.06 227.931 41.4 227.518 41C227.104 40.6 226.431 40.4 225.498 40.4C224.338 40.4 223.524 40.7133 223.058 41.34C222.591 41.9667 222.358 43.0267 222.358 44.52C222.358 45.9733 222.604 47.0067 223.098 47.62C223.604 48.2333 224.464 48.54 225.678 48.54C226.971 48.54 228.204 48.1467 229.378 47.36V49.1C228.178 49.8333 226.864 50.2 225.438 50.2C223.891 50.2 222.678 49.7267 221.798 48.78C220.931 47.8333 220.498 46.5067 220.498 44.8C220.498 42.8933 220.938 41.42 221.818 40.38C222.711 39.3267 223.951 38.8 225.538 38.8C226.858 38.8 227.931 39.18 228.758 39.94C229.584 40.7 229.998 41.7133 229.998 42.98H228.138ZM239.811 34.38V37.06H237.391V34.38H239.811ZM239.491 48.4H242.531V50H233.731V48.4H237.691V40.6H234.331V39H239.491V48.4ZM255.024 40.6H250.224V46.3C250.224 47.06 250.404 47.6267 250.764 48C251.124 48.36 251.73 48.54 252.584 48.54C253.437 48.54 254.25 48.3667 255.024 48.02V49.74C254.144 50.0467 253.27 50.2 252.404 50.2C251.084 50.2 250.09 49.8733 249.424 49.22C248.757 48.5533 248.424 47.66 248.424 46.54V40.6H245.884V39.44L248.424 39L248.844 36.54H250.224V39H255.024V40.6ZM266.697 39H268.657L264.817 50.24C263.963 52.7467 262.057 54 259.097 54V52.32C260.23 52.32 261.117 52.1267 261.757 51.74C262.397 51.3667 262.857 50.7867 263.137 50H262.177L258.417 39H260.377L263.537 48.96L266.697 39Z" fill="#0478FF"/>
<path d="M279.41 36.8H276.23V51.2H279.41V52.8H274.43V35.2H279.41V36.8Z" fill="#689D9D"/>
<path d="M290.523 48.32H294.043V50H284.743V48.32H288.643V37.8L284.743 40.6V38.24L288.363 36H290.523V48.32ZM315.029 41.08C315.882 41.08 316.642 41.2 317.309 41.44C317.975 41.6667 318.529 42.0733 318.969 42.66C319.422 43.2333 319.649 43.96 319.649 44.84C319.649 46.5333 318.875 47.8533 317.329 48.8C315.782 49.7467 313.529 50.22 310.569 50.22V48.44C315.329 48.44 317.709 47.3533 317.709 45.18C317.709 44.34 317.389 43.7267 316.749 43.34C316.122 42.94 315.322 42.74 314.349 42.74C313.562 42.74 312.762 42.88 311.949 43.16L310.269 42.02L311.289 36H319.069V37.66H312.769L312.169 41.48C313.115 41.2133 314.069 41.08 315.029 41.08Z" fill="#E151EE"/>
<path d="M300.536 39H303.296V41.96H300.536V39ZM300.536 47.04H303.296V50H300.536V47.04Z" fill="white"/>
<path d="M324.442 35.2H329.402V52.8H324.442V51.2H327.602V36.8H324.442V35.2Z" fill="#689D9D"/>
<path d="M75.616 100.112C75.616 98.352 75.304 97.064 74.68 96.248C74.056 95.432 73.104 95.024 71.824 95.024C70.4 95.024 69.376 95.544 68.752 96.584C68.128 97.608 67.816 99.288 67.816 101.624C67.816 103.96 68.128 105.632 68.752 106.64C69.376 107.648 70.408 108.152 71.848 108.152C73.528 108.152 75.224 107.608 76.936 106.52V108.848C75.16 109.776 73.376 110.24 71.584 110.24C69.648 110.24 68.144 109.528 67.072 108.104C66.016 106.68 65.488 104.672 65.488 102.08C65.488 99.168 66.056 96.92 67.192 95.336C68.344 93.752 69.968 92.96 72.064 92.96C73.888 92.96 75.32 93.592 76.36 94.856C77.416 96.104 77.944 97.856 77.944 100.112H75.616ZM263.398 110.24C261.622 110.24 260.254 109.68 259.294 108.56C258.334 107.424 257.854 105.824 257.854 103.76C257.854 101.472 258.382 99.704 259.438 98.456C260.494 97.192 261.974 96.56 263.878 96.56C265.654 96.56 267.022 97.12 267.982 98.24C268.958 99.36 269.446 100.952 269.446 103.016C269.446 105.32 268.918 107.104 267.862 108.368C266.806 109.616 265.318 110.24 263.398 110.24ZM260.878 107.168C261.422 107.888 262.342 108.248 263.638 108.248C264.934 108.248 265.846 107.88 266.374 107.144C266.918 106.392 267.19 105.128 267.19 103.352C267.19 101.592 266.918 100.352 266.374 99.632C265.846 98.912 264.934 98.552 263.638 98.552C262.358 98.552 261.446 98.92 260.902 99.656C260.358 100.392 260.086 101.648 260.086 103.424C260.086 105.184 260.35 106.432 260.878 107.168ZM308.197 98.672C305.685 98.672 303.589 99.344 301.909 100.688V108.08H306.901V110H296.341V108.08H299.749V98.72H297.061V96.8H301.381L301.789 99.416C302.525 98.456 303.477 97.696 304.645 97.136C305.829 96.576 307.013 96.296 308.197 96.296V98.672ZM342.245 96.56C343.381 96.56 344.261 96.896 344.885 97.568C345.525 98.24 345.845 99.232 345.845 100.544V110H343.709V100.832C343.709 99.216 342.989 98.408 341.549 98.408C340.845 98.408 340.173 98.632 339.533 99.08C338.909 99.528 338.149 100.32 337.253 101.456V110H335.117V96.8H336.725L337.133 99.896C338.509 97.672 340.213 96.56 342.245 96.56ZM381.045 91.256V94.472H378.141V91.256H381.045ZM380.661 108.08H384.309V110H373.749V108.08H378.501V98.72H374.469V96.8H380.661V108.08ZM422.844 110H420.708L420.228 107.384C419.332 109.288 417.804 110.24 415.644 110.24C414.38 110.24 413.396 109.928 412.692 109.304C411.988 108.664 411.636 107.776 411.636 106.64C411.636 105.152 412.284 104.032 413.58 103.28C414.876 102.512 416.996 102.12 419.94 102.104V100.976C419.94 99.36 419.036 98.552 417.228 98.552C415.788 98.552 414.316 98.928 412.812 99.68V97.616C414.444 96.912 416.004 96.56 417.492 96.56C418.948 96.56 420.076 96.936 420.876 97.688C421.692 98.424 422.1 99.448 422.1 100.76V105.944L422.844 110ZM416.148 108.248C417.268 108.248 418.18 107.904 418.884 107.216C419.588 106.528 419.94 105.656 419.94 104.6V103.544C417.764 103.56 416.204 103.776 415.26 104.192C414.332 104.592 413.868 105.28 413.868 106.256C413.868 107.584 414.628 108.248 416.148 108.248Z" fill="#B3D1D1"/>
<path d="M115.904 110H113.384L112.928 107.528C112.016 109.336 110.512 110.24 108.416 110.24C107.12 110.24 106.104 109.92 105.368 109.28C104.648 108.624 104.288 107.72 104.288 106.568C104.288 105.096 104.928 103.976 106.208 103.208C107.488 102.424 109.624 102.024 112.616 102.008V101C112.616 99.608 111.76 98.912 110.048 98.912C108.592 98.912 107.096 99.256 105.56 99.944V97.544C107.304 96.888 108.896 96.56 110.336 96.56C111.84 96.56 113.016 96.944 113.864 97.712C114.728 98.464 115.16 99.48 115.16 100.76V105.944L115.904 110ZM109.04 107.888C110.112 107.888 110.976 107.592 111.632 107C112.288 106.392 112.616 105.592 112.616 104.6V103.64C110.552 103.656 109.088 103.848 108.224 104.216C107.376 104.584 106.952 105.216 106.952 106.112C106.952 107.296 107.648 107.888 109.04 107.888ZM151.847 107.888C152.887 107.888 153.887 107.592 154.847 107V109.352C153.711 109.944 152.551 110.24 151.367 110.24C149.847 110.24 148.663 109.776 147.815 108.848C146.983 107.92 146.567 106.552 146.567 104.744V94.496H142.079V92.24H149.111V104.552C149.111 106.776 150.023 107.888 151.847 107.888ZM189.207 91.016V94.52H186.039V91.016H189.207ZM188.895 107.744H192.591V110H181.551V107.744H186.351V99.056H182.271V96.8H188.895V107.744ZM228.222 94.16C226.27 94.16 225.294 94.84 225.294 96.2V96.92H231.222V99.056H225.294V110H222.75V99.056H219.51V96.92H222.75V96.368C222.75 95.008 223.206 93.944 224.118 93.176C225.03 92.392 226.294 92 227.91 92C229.03 92 230.134 92.168 231.222 92.504V94.712C230.246 94.344 229.246 94.16 228.222 94.16Z" fill="#2F6B6B"/>
<path d="M71.44 147.24C69.552 147.24 68.088 146.528 67.048 145.104C66.024 143.68 65.512 141.672 65.512 139.08C65.512 136.168 66.072 133.92 67.192 132.336C68.312 130.752 69.904 129.96 71.968 129.96C73.84 129.96 75.288 130.672 76.312 132.096C77.336 133.504 77.848 135.504 77.848 138.096C77.848 141.008 77.288 143.264 76.168 144.864C75.064 146.448 73.488 147.24 71.44 147.24ZM68.632 143.736C69.208 144.68 70.224 145.152 71.68 145.152C73.136 145.152 74.152 144.672 74.728 143.712C75.304 142.736 75.592 141.016 75.592 138.552C75.592 136.12 75.304 134.424 74.728 133.464C74.168 132.504 73.16 132.024 71.704 132.024C70.248 132.024 69.232 132.512 68.656 133.488C68.08 134.448 67.792 136.16 67.792 138.624C67.792 141.072 68.072 142.776 68.632 143.736ZM70.024 136.848H73.336V140.328H70.024V136.848ZM302.965 135.84C304.581 135.84 305.837 136.312 306.733 137.256C307.629 138.2 308.077 139.56 308.077 141.336C308.077 143.192 307.565 144.64 306.541 145.68C305.517 146.72 304.085 147.24 302.245 147.24C300.229 147.24 298.685 146.616 297.613 145.368C296.557 144.104 296.029 142.272 296.029 139.872C296.029 136.608 296.845 134.144 298.477 132.48C300.109 130.8 302.525 129.96 305.725 129.96V132.072C303.341 132.072 301.549 132.56 300.349 133.536C299.149 134.496 298.477 135.984 298.333 138C298.733 137.312 299.341 136.784 300.157 136.416C300.989 136.032 301.925 135.84 302.965 135.84ZM302.149 145.176C303.429 145.176 304.349 144.888 304.909 144.312C305.485 143.736 305.773 142.808 305.773 141.528C305.773 140.248 305.485 139.32 304.909 138.744C304.349 138.168 303.429 137.88 302.149 137.88C300.869 137.88 299.941 138.168 299.365 138.744C298.789 139.304 298.501 140.224 298.501 141.504C298.501 142.8 298.781 143.736 299.341 144.312C299.917 144.888 300.853 145.176 302.149 145.176ZM334.661 130.2H346.421V132.504C344.437 134.888 343.021 137.184 342.173 139.392C341.341 141.6 340.925 144.136 340.925 147H338.549C338.549 144.52 339.061 142 340.085 139.44C341.109 136.864 342.565 134.448 344.453 132.192H334.661V130.2ZM381.357 138.12C382.541 138.536 383.461 139.056 384.117 139.68C384.773 140.304 385.101 141.2 385.101 142.368C385.101 143.888 384.533 145.08 383.397 145.944C382.261 146.808 380.669 147.24 378.621 147.24C376.685 147.24 375.181 146.84 374.109 146.04C373.053 145.24 372.525 144.128 372.525 142.704C372.525 141.536 372.853 140.576 373.509 139.824C374.181 139.056 375.021 138.488 376.029 138.12C374.269 137.32 373.389 136.064 373.389 134.352C373.389 132.96 373.877 131.88 374.853 131.112C375.845 130.344 377.229 129.96 379.005 129.96C380.669 129.96 381.957 130.32 382.869 131.04C383.797 131.76 384.261 132.768 384.261 134.064C384.261 135.088 383.989 135.944 383.445 136.632C382.901 137.304 382.205 137.8 381.357 138.12ZM378.813 132.024C376.749 132.024 375.717 132.768 375.717 134.256C375.717 135.152 376.029 135.832 376.653 136.296C377.293 136.744 378.229 137.16 379.461 137.544C380.229 137.336 380.829 136.96 381.261 136.416C381.709 135.872 381.933 135.2 381.933 134.4C381.933 133.568 381.677 132.968 381.165 132.6C380.669 132.216 379.885 132.024 378.813 132.024ZM378.861 145.176C381.469 145.176 382.773 144.296 382.773 142.536C382.773 142.088 382.677 141.68 382.485 141.312C382.309 140.944 382.117 140.656 381.909 140.448C381.701 140.224 381.341 140 380.829 139.776C380.333 139.552 379.957 139.4 379.701 139.32C379.445 139.24 378.989 139.104 378.333 138.912C378.221 138.88 378.141 138.856 378.093 138.84C375.933 139.4 374.853 140.544 374.853 142.272C374.853 143.264 375.173 144 375.813 144.48C376.469 144.944 377.485 145.176 378.861 145.176ZM416.988 129.96C419.004 129.96 420.54 130.592 421.596 131.856C422.668 133.104 423.204 134.928 423.204 137.328C423.204 140.592 422.388 143.064 420.756 144.744C419.124 146.408 416.708 147.24 413.508 147.24V145.104C415.892 145.104 417.684 144.624 418.884 143.664C420.1 142.688 420.772 141.2 420.9 139.2C420.5 139.888 419.884 140.416 419.052 140.784C418.22 141.152 417.292 141.336 416.268 141.336C414.652 141.336 413.396 140.864 412.5 139.92C411.604 138.976 411.156 137.616 411.156 135.84C411.156 133.984 411.668 132.544 412.692 131.52C413.716 130.48 415.148 129.96 416.988 129.96ZM414.324 138.456C414.9 139.032 415.828 139.32 417.108 139.32C418.388 139.32 419.308 139.04 419.868 138.48C420.444 137.904 420.732 136.976 420.732 135.696C420.732 134.4 420.444 133.464 419.868 132.888C419.308 132.312 418.38 132.024 417.084 132.024C415.804 132.024 414.876 132.312 414.3 132.888C413.74 133.464 413.46 134.392 413.46 135.672C413.46 136.952 413.748 137.88 414.324 138.456Z" fill="#B3D1D1"/>
<path d="M111.968 144.648H116.144V147H104.624V144.648H109.28V132.792L104.624 136.224V132.816L108.896 130.2H111.968V144.648ZM145.631 144.648H154.535V147H142.631V144.288L148.919 138.984C149.895 138.168 150.567 137.464 150.935 136.872C151.303 136.28 151.487 135.664 151.487 135.024C151.487 133.248 150.319 132.36 147.983 132.36C146.495 132.36 145.007 132.8 143.519 133.68V131.064C145.087 130.328 146.711 129.96 148.391 129.96C150.215 129.96 151.647 130.384 152.687 131.232C153.727 132.064 154.247 133.224 154.247 134.712C154.247 135.8 153.927 136.864 153.287 137.904C152.663 138.928 151.607 140.016 150.119 141.168L145.631 144.648ZM187.791 136.44C189.407 136.664 190.655 137.16 191.535 137.928C192.415 138.696 192.855 139.696 192.855 140.928C192.855 142.912 191.855 144.464 189.855 145.584C187.855 146.704 185.079 147.264 181.527 147.264V144.768C184.343 144.768 186.471 144.456 187.911 143.832C189.367 143.208 190.095 142.32 190.095 141.168C190.095 140.24 189.663 139.56 188.799 139.128C187.951 138.696 186.599 138.48 184.743 138.48L184.095 136.776L188.919 132.552H181.527V130.2H191.583V132.912L187.791 136.44ZM231.822 141.048V143.4H229.182V147H226.494V143.4H218.718V140.688L226.038 130.2H229.182V141.048H231.822ZM221.31 141.048H226.494V133.632L221.31 141.048Z" fill="#0478FF"/>
<path d="M264.094 136.152C265.71 136.152 267.046 136.52 268.102 137.256C269.174 137.992 269.71 139.144 269.71 140.712C269.71 142.792 268.766 144.408 266.878 145.56C265.006 146.696 262.27 147.264 258.67 147.264V144.768C264.19 144.768 266.95 143.568 266.95 141.168C266.95 140.24 266.582 139.56 265.846 139.128C265.11 138.696 264.182 138.48 263.062 138.48C262.15 138.48 261.262 138.616 260.398 138.888L258.07 137.304L259.27 130.2H268.966V132.552H261.358L260.758 136.608C261.878 136.304 262.99 136.152 264.094 136.152Z" fill="#E151EE"/>
<path d="M109.5 169.333C108.027 169.333 106.833 170.527 106.833 172C106.833 173.473 108.027 174.667 109.5 174.667C110.973 174.667 112.167 173.473 112.167 172C112.167 170.527 110.973 169.333 109.5 169.333ZM109 162L109 172L110 172L110 162L109 162Z" fill="#2F6B6B"/>
<path d="M96.1705 187.321L94.5085 187.423C94.4801 187.281 94.419 187.153 94.3253 187.04C94.2315 186.923 94.108 186.831 93.9545 186.763C93.804 186.692 93.6236 186.656 93.4134 186.656C93.1321 186.656 92.8949 186.716 92.7017 186.835C92.5085 186.952 92.4119 187.108 92.4119 187.304C92.4119 187.46 92.4744 187.592 92.5994 187.7C92.7244 187.808 92.9389 187.895 93.2429 187.96L94.4276 188.199C95.0639 188.33 95.5384 188.54 95.8509 188.83C96.1634 189.119 96.3196 189.5 96.3196 189.972C96.3196 190.401 96.1932 190.777 95.9403 191.101C95.6903 191.425 95.3466 191.678 94.9091 191.859C94.4744 192.038 93.973 192.128 93.4048 192.128C92.5384 192.128 91.848 191.947 91.3338 191.587C90.8224 191.223 90.5227 190.729 90.4347 190.104L92.2202 190.01C92.2741 190.274 92.4048 190.476 92.6122 190.615C92.8196 190.751 93.0852 190.82 93.4091 190.82C93.7273 190.82 93.983 190.759 94.1761 190.636C94.3722 190.511 94.4716 190.351 94.4744 190.155C94.4716 189.99 94.402 189.855 94.2656 189.75C94.1293 189.642 93.919 189.56 93.6349 189.503L92.5014 189.277C91.8622 189.149 91.3864 188.928 91.0739 188.612C90.7642 188.297 90.6094 187.895 90.6094 187.406C90.6094 186.986 90.723 186.624 90.9503 186.32C91.1804 186.016 91.5028 185.781 91.9176 185.616C92.3352 185.452 92.8239 185.369 93.3835 185.369C94.2102 185.369 94.8608 185.544 95.3352 185.893C95.8125 186.243 96.0909 186.719 96.1705 187.321ZM99.2781 183.273V192H97.4627V183.273H99.2781ZM100.732 192V185.455H102.548V192H100.732ZM101.644 184.611C101.374 184.611 101.143 184.521 100.95 184.342C100.759 184.161 100.664 183.943 100.664 183.69C100.664 183.44 100.759 183.226 100.95 183.047C101.143 182.865 101.374 182.774 101.644 182.774C101.914 182.774 102.144 182.865 102.335 183.047C102.528 183.226 102.624 183.44 102.624 183.69C102.624 183.943 102.528 184.161 102.335 184.342C102.144 184.521 101.914 184.611 101.644 184.611ZM106.959 192.128C106.289 192.128 105.712 191.986 105.229 191.702C104.749 191.415 104.38 191.017 104.121 190.509C103.865 190 103.738 189.415 103.738 188.753C103.738 188.082 103.867 187.494 104.125 186.989C104.387 186.48 104.757 186.084 105.238 185.8C105.718 185.513 106.289 185.369 106.951 185.369C107.522 185.369 108.022 185.473 108.451 185.68C108.88 185.888 109.219 186.179 109.469 186.554C109.719 186.929 109.857 187.369 109.882 187.875H108.169C108.121 187.548 107.993 187.286 107.786 187.087C107.581 186.885 107.313 186.784 106.98 186.784C106.699 186.784 106.453 186.861 106.243 187.014C106.036 187.165 105.874 187.385 105.757 187.675C105.641 187.964 105.583 188.315 105.583 188.727C105.583 189.145 105.64 189.5 105.753 189.793C105.87 190.085 106.033 190.308 106.243 190.462C106.453 190.615 106.699 190.692 106.98 190.692C107.188 190.692 107.374 190.649 107.539 190.564C107.706 190.479 107.844 190.355 107.952 190.193C108.063 190.028 108.135 189.831 108.169 189.601H109.882C109.854 190.101 109.718 190.541 109.473 190.922C109.232 191.3 108.898 191.595 108.472 191.808C108.046 192.021 107.542 192.128 106.959 192.128ZM111.045 192V185.455H112.86V192H111.045ZM111.957 184.611C111.687 184.611 111.455 184.521 111.262 184.342C111.072 184.161 110.977 183.943 110.977 183.69C110.977 183.44 111.072 183.226 111.262 183.047C111.455 182.865 111.687 182.774 111.957 182.774C112.227 182.774 112.457 182.865 112.647 183.047C112.84 183.226 112.937 183.44 112.937 183.69C112.937 183.943 112.84 184.161 112.647 184.342C112.457 184.521 112.227 184.611 111.957 184.611ZM116.13 188.216V192H114.314V185.455H116.044V186.609H116.121C116.266 186.229 116.509 185.928 116.85 185.706C117.191 185.482 117.604 185.369 118.09 185.369C118.544 185.369 118.941 185.469 119.279 185.668C119.617 185.866 119.88 186.151 120.067 186.52C120.255 186.886 120.348 187.324 120.348 187.832V192H118.533V188.156C118.536 187.756 118.434 187.443 118.226 187.219C118.019 186.991 117.733 186.878 117.37 186.878C117.125 186.878 116.909 186.93 116.722 187.036C116.537 187.141 116.392 187.294 116.287 187.496C116.185 187.695 116.132 187.935 116.13 188.216ZM124.728 194.591C124.14 194.591 123.636 194.51 123.215 194.348C122.798 194.189 122.465 193.972 122.218 193.696C121.971 193.42 121.81 193.111 121.737 192.767L123.415 192.541C123.467 192.672 123.548 192.794 123.658 192.908C123.769 193.021 123.915 193.112 124.097 193.18C124.282 193.251 124.506 193.287 124.771 193.287C125.165 193.287 125.491 193.19 125.746 192.997C126.005 192.807 126.134 192.487 126.134 192.038V190.841H126.058C125.978 191.023 125.859 191.195 125.7 191.357C125.54 191.518 125.336 191.651 125.086 191.753C124.836 191.855 124.538 191.906 124.191 191.906C123.7 191.906 123.252 191.793 122.849 191.565C122.448 191.335 122.129 190.984 121.89 190.513C121.654 190.038 121.536 189.439 121.536 188.714C121.536 187.973 121.657 187.354 121.898 186.857C122.14 186.359 122.461 185.987 122.862 185.74C123.265 185.493 123.707 185.369 124.187 185.369C124.553 185.369 124.86 185.432 125.107 185.557C125.354 185.679 125.553 185.832 125.704 186.017C125.857 186.199 125.975 186.378 126.058 186.554H126.126V185.455H127.928V192.064C127.928 192.621 127.792 193.087 127.519 193.462C127.246 193.837 126.869 194.118 126.386 194.305C125.906 194.496 125.353 194.591 124.728 194.591ZM124.766 190.543C125.059 190.543 125.306 190.47 125.508 190.325C125.712 190.178 125.869 189.967 125.977 189.695C126.087 189.419 126.143 189.089 126.143 188.706C126.143 188.322 126.089 187.99 125.981 187.709C125.873 187.425 125.717 187.205 125.512 187.048C125.308 186.892 125.059 186.814 124.766 186.814C124.468 186.814 124.217 186.895 124.012 187.057C123.808 187.216 123.653 187.437 123.548 187.722C123.442 188.006 123.39 188.334 123.39 188.706C123.39 189.084 123.442 189.411 123.548 189.686C123.656 189.959 123.81 190.17 124.012 190.321C124.217 190.469 124.468 190.543 124.766 190.543Z" fill="#2F6B6B"/>
<path d="M98.1705 198.321L96.5085 198.423C96.4801 198.281 96.419 198.153 96.3253 198.04C96.2315 197.923 96.108 197.831 95.9545 197.763C95.804 197.692 95.6236 197.656 95.4134 197.656C95.1321 197.656 94.8949 197.716 94.7017 197.835C94.5085 197.952 94.4119 198.108 94.4119 198.304C94.4119 198.46 94.4744 198.592 94.5994 198.7C94.7244 198.808 94.9389 198.895 95.2429 198.96L96.4276 199.199C97.0639 199.33 97.5384 199.54 97.8509 199.83C98.1634 200.119 98.3196 200.5 98.3196 200.972C98.3196 201.401 98.1932 201.777 97.9403 202.101C97.6903 202.425 97.3466 202.678 96.9091 202.859C96.4744 203.038 95.973 203.128 95.4048 203.128C94.5384 203.128 93.848 202.947 93.3338 202.587C92.8224 202.223 92.5227 201.729 92.4347 201.104L94.2202 201.01C94.2741 201.274 94.4048 201.476 94.6122 201.615C94.8196 201.751 95.0852 201.82 95.4091 201.82C95.7273 201.82 95.983 201.759 96.1761 201.636C96.3722 201.511 96.4716 201.351 96.4744 201.155C96.4716 200.99 96.402 200.855 96.2656 200.75C96.1293 200.642 95.919 200.56 95.6349 200.503L94.5014 200.277C93.8622 200.149 93.3864 199.928 93.0739 199.612C92.7642 199.297 92.6094 198.895 92.6094 198.406C92.6094 197.986 92.723 197.624 92.9503 197.32C93.1804 197.016 93.5028 196.781 93.9176 196.616C94.3352 196.452 94.8239 196.369 95.3835 196.369C96.2102 196.369 96.8608 196.544 97.3352 196.893C97.8125 197.243 98.0909 197.719 98.1705 198.321ZM102.944 196.455V197.818H99.0025V196.455H102.944ZM99.8974 194.886H101.713V200.989C101.713 201.156 101.738 201.287 101.789 201.381C101.841 201.472 101.912 201.536 102.002 201.572C102.096 201.609 102.204 201.628 102.326 201.628C102.412 201.628 102.497 201.621 102.582 201.607C102.667 201.589 102.733 201.577 102.778 201.568L103.064 202.919C102.973 202.947 102.845 202.98 102.68 203.017C102.515 203.057 102.315 203.081 102.079 203.089C101.642 203.107 101.258 203.048 100.929 202.915C100.602 202.781 100.348 202.574 100.166 202.293C99.984 202.011 99.8945 201.656 99.8974 201.227V194.886ZM105.993 203.124C105.576 203.124 105.203 203.051 104.877 202.906C104.55 202.759 104.292 202.541 104.101 202.254C103.914 201.964 103.82 201.604 103.82 201.172C103.82 200.808 103.887 200.503 104.02 200.256C104.154 200.009 104.336 199.81 104.566 199.659C104.796 199.509 105.057 199.395 105.35 199.318C105.645 199.241 105.955 199.188 106.279 199.156C106.659 199.116 106.966 199.08 107.199 199.045C107.432 199.009 107.601 198.955 107.706 198.884C107.811 198.812 107.864 198.707 107.864 198.568V198.543C107.864 198.273 107.779 198.064 107.608 197.916C107.441 197.768 107.202 197.695 106.892 197.695C106.566 197.695 106.306 197.767 106.113 197.912C105.919 198.054 105.792 198.233 105.729 198.449L104.05 198.312C104.135 197.915 104.303 197.571 104.553 197.281C104.803 196.989 105.125 196.764 105.52 196.608C105.918 196.449 106.378 196.369 106.901 196.369C107.265 196.369 107.613 196.412 107.945 196.497C108.28 196.582 108.577 196.714 108.836 196.893C109.097 197.072 109.303 197.303 109.453 197.584C109.604 197.862 109.679 198.196 109.679 198.585V203H107.958V202.092H107.907C107.801 202.297 107.661 202.477 107.485 202.634C107.309 202.787 107.097 202.908 106.85 202.996C106.603 203.081 106.317 203.124 105.993 203.124ZM106.513 201.871C106.78 201.871 107.016 201.818 107.221 201.713C107.425 201.605 107.586 201.46 107.702 201.278C107.819 201.097 107.877 200.891 107.877 200.661V199.966C107.82 200.003 107.742 200.037 107.642 200.068C107.546 200.097 107.436 200.124 107.314 200.149C107.192 200.172 107.07 200.193 106.948 200.213C106.826 200.23 106.715 200.246 106.615 200.26C106.402 200.291 106.216 200.341 106.057 200.409C105.898 200.477 105.775 200.57 105.686 200.686C105.598 200.8 105.554 200.942 105.554 201.112C105.554 201.359 105.644 201.548 105.823 201.679C106.005 201.807 106.235 201.871 106.513 201.871ZM111.088 203V196.455H112.848V197.597H112.916C113.035 197.19 113.235 196.884 113.517 196.676C113.798 196.466 114.122 196.361 114.488 196.361C114.579 196.361 114.677 196.366 114.782 196.378C114.887 196.389 114.98 196.405 115.059 196.425V198.036C114.974 198.01 114.856 197.987 114.706 197.967C114.555 197.947 114.417 197.938 114.292 197.938C114.025 197.938 113.787 197.996 113.576 198.112C113.369 198.226 113.204 198.385 113.082 198.589C112.963 198.794 112.903 199.03 112.903 199.297V203H111.088ZM119.808 196.455V197.818H115.866V196.455H119.808ZM116.761 194.886H118.576V200.989C118.576 201.156 118.602 201.287 118.653 201.381C118.704 201.472 118.775 201.536 118.866 201.572C118.96 201.609 119.067 201.628 119.19 201.628C119.275 201.628 119.36 201.621 119.445 201.607C119.531 201.589 119.596 201.577 119.641 201.568L119.927 202.919C119.836 202.947 119.708 202.98 119.543 203.017C119.379 203.057 119.178 203.081 118.942 203.089C118.505 203.107 118.121 203.048 117.792 202.915C117.465 202.781 117.211 202.574 117.029 202.293C116.847 202.011 116.758 201.656 116.761 201.227V194.886ZM126.354 198.321L124.692 198.423C124.664 198.281 124.603 198.153 124.509 198.04C124.415 197.923 124.292 197.831 124.138 197.763C123.988 197.692 123.807 197.656 123.597 197.656C123.316 197.656 123.078 197.716 122.885 197.835C122.692 197.952 122.596 198.108 122.596 198.304C122.596 198.46 122.658 198.592 122.783 198.7C122.908 198.808 123.123 198.895 123.426 198.96L124.611 199.199C125.248 199.33 125.722 199.54 126.034 199.83C126.347 200.119 126.503 200.5 126.503 200.972C126.503 201.401 126.377 201.777 126.124 202.101C125.874 202.425 125.53 202.678 125.093 202.859C124.658 203.038 124.157 203.128 123.588 203.128C122.722 203.128 122.032 202.947 121.517 202.587C121.006 202.223 120.706 201.729 120.618 201.104L122.404 201.01C122.458 201.274 122.588 201.476 122.796 201.615C123.003 201.751 123.269 201.82 123.593 201.82C123.911 201.82 124.167 201.759 124.36 201.636C124.556 201.511 124.655 201.351 124.658 201.155C124.655 200.99 124.586 200.855 124.449 200.75C124.313 200.642 124.103 200.56 123.819 200.503L122.685 200.277C122.046 200.149 121.57 199.928 121.257 199.612C120.948 199.297 120.793 198.895 120.793 198.406C120.793 197.986 120.907 197.624 121.134 197.32C121.364 197.016 121.686 196.781 122.101 196.616C122.519 196.452 123.007 196.369 123.567 196.369C124.394 196.369 125.044 196.544 125.519 196.893C125.996 197.243 126.275 197.719 126.354 198.321Z" fill="#2F6B6B"/>
<path d="M226.5 169.333C225.027 169.333 223.833 170.527 223.833 172C223.833 173.473 225.027 174.667 226.5 174.667C227.973 174.667 229.167 173.473 229.167 172C229.167 170.527 227.973 169.333 226.5 169.333ZM226 162L226 172L227 172L227 162L226 162Z" fill="#2F6B6B"/>
<path d="M213.17 187.321L211.509 187.423C211.48 187.281 211.419 187.153 211.325 187.04C211.232 186.923 211.108 186.831 210.955 186.763C210.804 186.692 210.624 186.656 210.413 186.656C210.132 186.656 209.895 186.716 209.702 186.835C209.509 186.952 209.412 187.108 209.412 187.304C209.412 187.46 209.474 187.592 209.599 187.7C209.724 187.808 209.939 187.895 210.243 187.96L211.428 188.199C212.064 188.33 212.538 188.54 212.851 188.83C213.163 189.119 213.32 189.5 213.32 189.972C213.32 190.401 213.193 190.777 212.94 191.101C212.69 191.425 212.347 191.678 211.909 191.859C211.474 192.038 210.973 192.128 210.405 192.128C209.538 192.128 208.848 191.947 208.334 191.587C207.822 191.223 207.523 190.729 207.435 190.104L209.22 190.01C209.274 190.274 209.405 190.476 209.612 190.615C209.82 190.751 210.085 190.82 210.409 190.82C210.727 190.82 210.983 190.759 211.176 190.636C211.372 190.511 211.472 190.351 211.474 190.155C211.472 189.99 211.402 189.855 211.266 189.75C211.129 189.642 210.919 189.56 210.635 189.503L209.501 189.277C208.862 189.149 208.386 188.928 208.074 188.612C207.764 188.297 207.609 187.895 207.609 187.406C207.609 186.986 207.723 186.624 207.95 186.32C208.18 186.016 208.503 185.781 208.918 185.616C209.335 185.452 209.824 185.369 210.384 185.369C211.21 185.369 211.861 185.544 212.335 185.893C212.813 186.243 213.091 186.719 213.17 187.321ZM216.278 183.273V192H214.463V183.273H216.278ZM217.732 192V185.455H219.548V192H217.732ZM218.644 184.611C218.374 184.611 218.143 184.521 217.95 184.342C217.759 184.161 217.664 183.943 217.664 183.69C217.664 183.44 217.759 183.226 217.95 183.047C218.143 182.865 218.374 182.774 218.644 182.774C218.914 182.774 219.144 182.865 219.335 183.047C219.528 183.226 219.624 183.44 219.624 183.69C219.624 183.943 219.528 184.161 219.335 184.342C219.144 184.521 218.914 184.611 218.644 184.611ZM223.959 192.128C223.289 192.128 222.712 191.986 222.229 191.702C221.749 191.415 221.38 191.017 221.121 190.509C220.865 190 220.738 189.415 220.738 188.753C220.738 188.082 220.867 187.494 221.125 186.989C221.387 186.48 221.757 186.084 222.238 185.8C222.718 185.513 223.289 185.369 223.951 185.369C224.522 185.369 225.022 185.473 225.451 185.68C225.88 185.888 226.219 186.179 226.469 186.554C226.719 186.929 226.857 187.369 226.882 187.875H225.169C225.121 187.548 224.993 187.286 224.786 187.087C224.581 186.885 224.313 186.784 223.98 186.784C223.699 186.784 223.453 186.861 223.243 187.014C223.036 187.165 222.874 187.385 222.757 187.675C222.641 187.964 222.583 188.315 222.583 188.727C222.583 189.145 222.64 189.5 222.753 189.793C222.87 190.085 223.033 190.308 223.243 190.462C223.453 190.615 223.699 190.692 223.98 190.692C224.188 190.692 224.374 190.649 224.539 190.564C224.706 190.479 224.844 190.355 224.952 190.193C225.063 190.028 225.135 189.831 225.169 189.601H226.882C226.854 190.101 226.718 190.541 226.473 190.922C226.232 191.3 225.898 191.595 225.472 191.808C225.046 192.021 224.542 192.128 223.959 192.128ZM228.045 192V185.455H229.86V192H228.045ZM228.957 184.611C228.687 184.611 228.455 184.521 228.262 184.342C228.072 184.161 227.977 183.943 227.977 183.69C227.977 183.44 228.072 183.226 228.262 183.047C228.455 182.865 228.687 182.774 228.957 182.774C229.227 182.774 229.457 182.865 229.647 183.047C229.84 183.226 229.937 183.44 229.937 183.69C229.937 183.943 229.84 184.161 229.647 184.342C229.457 184.521 229.227 184.611 228.957 184.611ZM233.13 188.216V192H231.314V185.455H233.044V186.609H233.121C233.266 186.229 233.509 185.928 233.85 185.706C234.191 185.482 234.604 185.369 235.09 185.369C235.544 185.369 235.941 185.469 236.279 185.668C236.617 185.866 236.88 186.151 237.067 186.52C237.255 186.886 237.348 187.324 237.348 187.832V192H235.533V188.156C235.536 187.756 235.434 187.443 235.226 187.219C235.019 186.991 234.733 186.878 234.37 186.878C234.125 186.878 233.909 186.93 233.722 187.036C233.537 187.141 233.392 187.294 233.287 187.496C233.185 187.695 233.132 187.935 233.13 188.216ZM241.728 194.591C241.14 194.591 240.636 194.51 240.215 194.348C239.798 194.189 239.465 193.972 239.218 193.696C238.971 193.42 238.81 193.111 238.737 192.767L240.415 192.541C240.467 192.672 240.548 192.794 240.658 192.908C240.769 193.021 240.915 193.112 241.097 193.18C241.282 193.251 241.506 193.287 241.771 193.287C242.165 193.287 242.491 193.19 242.746 192.997C243.005 192.807 243.134 192.487 243.134 192.038V190.841H243.058C242.978 191.023 242.859 191.195 242.7 191.357C242.54 191.518 242.336 191.651 242.086 191.753C241.836 191.855 241.538 191.906 241.191 191.906C240.7 191.906 240.252 191.793 239.849 191.565C239.448 191.335 239.129 190.984 238.89 190.513C238.654 190.038 238.536 189.439 238.536 188.714C238.536 187.973 238.657 187.354 238.898 186.857C239.14 186.359 239.461 185.987 239.862 185.74C240.265 185.493 240.707 185.369 241.187 185.369C241.553 185.369 241.86 185.432 242.107 185.557C242.354 185.679 242.553 185.832 242.704 186.017C242.857 186.199 242.975 186.378 243.058 186.554H243.126V185.455H244.928V192.064C244.928 192.621 244.792 193.087 244.519 193.462C244.246 193.837 243.869 194.118 243.386 194.305C242.906 194.496 242.353 194.591 241.728 194.591ZM241.766 190.543C242.059 190.543 242.306 190.47 242.508 190.325C242.712 190.178 242.869 189.967 242.977 189.695C243.087 189.419 243.143 189.089 243.143 188.706C243.143 188.322 243.089 187.99 242.981 187.709C242.873 187.425 242.717 187.205 242.512 187.048C242.308 186.892 242.059 186.814 241.766 186.814C241.468 186.814 241.217 186.895 241.012 187.057C240.808 187.216 240.653 187.437 240.548 187.722C240.442 188.006 240.39 188.334 240.39 188.706C240.39 189.084 240.442 189.411 240.548 189.686C240.656 189.959 240.81 190.17 241.012 190.321C241.217 190.469 241.468 190.543 241.766 190.543Z" fill="#2F6B6B"/>
<path d="M215.67 198.321L214.009 198.423C213.98 198.281 213.919 198.153 213.825 198.04C213.732 197.923 213.608 197.831 213.455 197.763C213.304 197.692 213.124 197.656 212.913 197.656C212.632 197.656 212.395 197.716 212.202 197.835C212.009 197.952 211.912 198.108 211.912 198.304C211.912 198.46 211.974 198.592 212.099 198.7C212.224 198.808 212.439 198.895 212.743 198.96L213.928 199.199C214.564 199.33 215.038 199.54 215.351 199.83C215.663 200.119 215.82 200.5 215.82 200.972C215.82 201.401 215.693 201.777 215.44 202.101C215.19 202.425 214.847 202.678 214.409 202.859C213.974 203.038 213.473 203.128 212.905 203.128C212.038 203.128 211.348 202.947 210.834 202.587C210.322 202.223 210.023 201.729 209.935 201.104L211.72 201.01C211.774 201.274 211.905 201.476 212.112 201.615C212.32 201.751 212.585 201.82 212.909 201.82C213.227 201.82 213.483 201.759 213.676 201.636C213.872 201.511 213.972 201.351 213.974 201.155C213.972 200.99 213.902 200.855 213.766 200.75C213.629 200.642 213.419 200.56 213.135 200.503L212.001 200.277C211.362 200.149 210.886 199.928 210.574 199.612C210.264 199.297 210.109 198.895 210.109 198.406C210.109 197.986 210.223 197.624 210.45 197.32C210.68 197.016 211.003 196.781 211.418 196.616C211.835 196.452 212.324 196.369 212.884 196.369C213.71 196.369 214.361 196.544 214.835 196.893C215.313 197.243 215.591 197.719 215.67 198.321ZM220.444 196.455V197.818H216.502V196.455H220.444ZM217.397 194.886H219.213V200.989C219.213 201.156 219.238 201.287 219.289 201.381C219.341 201.472 219.412 201.536 219.502 201.572C219.596 201.609 219.704 201.628 219.826 201.628C219.912 201.628 219.997 201.621 220.082 201.607C220.167 201.589 220.233 201.577 220.278 201.568L220.564 202.919C220.473 202.947 220.345 202.98 220.18 203.017C220.015 203.057 219.815 203.081 219.579 203.089C219.142 203.107 218.758 203.048 218.429 202.915C218.102 202.781 217.848 202.574 217.666 202.293C217.484 202.011 217.395 201.656 217.397 201.227V194.886ZM224.514 203.128C223.852 203.128 223.279 202.987 222.797 202.706C222.316 202.422 221.946 202.027 221.684 201.521C221.423 201.013 221.292 200.423 221.292 199.753C221.292 199.077 221.423 198.486 221.684 197.98C221.946 197.472 222.316 197.077 222.797 196.795C223.279 196.511 223.852 196.369 224.514 196.369C225.176 196.369 225.747 196.511 226.227 196.795C226.71 197.077 227.082 197.472 227.343 197.98C227.605 198.486 227.735 199.077 227.735 199.753C227.735 200.423 227.605 201.013 227.343 201.521C227.082 202.027 226.71 202.422 226.227 202.706C225.747 202.987 225.176 203.128 224.514 203.128ZM224.522 201.722C224.824 201.722 225.075 201.636 225.277 201.466C225.478 201.293 225.63 201.057 225.733 200.759C225.838 200.46 225.89 200.121 225.89 199.74C225.89 199.359 225.838 199.02 225.733 198.722C225.63 198.423 225.478 198.187 225.277 198.014C225.075 197.841 224.824 197.754 224.522 197.754C224.218 197.754 223.963 197.841 223.755 198.014C223.551 198.187 223.396 198.423 223.291 198.722C223.189 199.02 223.137 199.359 223.137 199.74C223.137 200.121 223.189 200.46 223.291 200.759C223.396 201.057 223.551 201.293 223.755 201.466C223.963 201.636 224.218 201.722 224.522 201.722ZM228.916 205.455V196.455H230.706V197.554H230.787C230.866 197.378 230.981 197.199 231.132 197.017C231.285 196.832 231.484 196.679 231.728 196.557C231.975 196.432 232.282 196.369 232.649 196.369C233.126 196.369 233.566 196.494 233.97 196.744C234.373 196.991 234.696 197.365 234.937 197.865C235.179 198.362 235.299 198.986 235.299 199.736C235.299 200.466 235.181 201.082 234.946 201.585C234.713 202.085 234.395 202.464 233.991 202.723C233.591 202.979 233.142 203.107 232.645 203.107C232.292 203.107 231.993 203.048 231.745 202.932C231.501 202.815 231.301 202.669 231.145 202.493C230.988 202.314 230.869 202.134 230.787 201.952H230.731V205.455H228.916ZM230.693 199.727C230.693 200.116 230.747 200.456 230.855 200.746C230.963 201.036 231.119 201.261 231.324 201.423C231.528 201.582 231.777 201.662 232.069 201.662C232.365 201.662 232.615 201.581 232.819 201.419C233.024 201.254 233.179 201.027 233.284 200.737C233.392 200.445 233.446 200.108 233.446 199.727C233.446 199.349 233.393 199.017 233.288 198.73C233.183 198.443 233.028 198.219 232.824 198.057C232.619 197.895 232.368 197.814 232.069 197.814C231.774 197.814 231.524 197.892 231.319 198.048C231.118 198.205 230.963 198.426 230.855 198.713C230.747 199 230.693 199.338 230.693 199.727ZM241.956 198.321L240.294 198.423C240.265 198.281 240.204 198.153 240.11 198.04C240.017 197.923 239.893 197.831 239.74 197.763C239.589 197.692 239.409 197.656 239.199 197.656C238.917 197.656 238.68 197.716 238.487 197.835C238.294 197.952 238.197 198.108 238.197 198.304C238.197 198.46 238.26 198.592 238.385 198.7C238.51 198.808 238.724 198.895 239.028 198.96L240.213 199.199C240.849 199.33 241.324 199.54 241.636 199.83C241.949 200.119 242.105 200.5 242.105 200.972C242.105 201.401 241.978 201.777 241.725 202.101C241.475 202.425 241.132 202.678 240.694 202.859C240.26 203.038 239.758 203.128 239.19 203.128C238.324 203.128 237.633 202.947 237.119 202.587C236.608 202.223 236.308 201.729 236.22 201.104L238.005 201.01C238.059 201.274 238.19 201.476 238.397 201.615C238.605 201.751 238.87 201.82 239.194 201.82C239.512 201.82 239.768 201.759 239.961 201.636C240.157 201.511 240.257 201.351 240.26 201.155C240.257 200.99 240.187 200.855 240.051 200.75C239.914 200.642 239.704 200.56 239.42 200.503L238.287 200.277C237.647 200.149 237.172 199.928 236.859 199.612C236.549 199.297 236.395 198.895 236.395 198.406C236.395 197.986 236.508 197.624 236.735 197.32C236.966 197.016 237.288 196.781 237.703 196.616C238.12 196.452 238.609 196.369 239.169 196.369C239.995 196.369 240.646 196.544 241.12 196.893C241.598 197.243 241.876 197.719 241.956 198.321Z" fill="#2F6B6B"/>
<path d="M264.5 204.333C263.027 204.333 261.833 205.527 261.833 207C261.833 208.473 263.027 209.667 264.5 209.667C265.973 209.667 267.167 208.473 267.167 207C267.167 205.527 265.973 204.333 264.5 204.333ZM264 162L264 207L265 207L265 162L264 162Z" fill="#2F6B6B"/>
<path d="M241.17 219.321L239.509 219.423C239.48 219.281 239.419 219.153 239.325 219.04C239.232 218.923 239.108 218.831 238.955 218.763C238.804 218.692 238.624 218.656 238.413 218.656C238.132 218.656 237.895 218.716 237.702 218.835C237.509 218.952 237.412 219.108 237.412 219.304C237.412 219.46 237.474 219.592 237.599 219.7C237.724 219.808 237.939 219.895 238.243 219.96L239.428 220.199C240.064 220.33 240.538 220.54 240.851 220.83C241.163 221.119 241.32 221.5 241.32 221.972C241.32 222.401 241.193 222.777 240.94 223.101C240.69 223.425 240.347 223.678 239.909 223.859C239.474 224.038 238.973 224.128 238.405 224.128C237.538 224.128 236.848 223.947 236.334 223.587C235.822 223.223 235.523 222.729 235.435 222.104L237.22 222.01C237.274 222.274 237.405 222.476 237.612 222.615C237.82 222.751 238.085 222.82 238.409 222.82C238.727 222.82 238.983 222.759 239.176 222.636C239.372 222.511 239.472 222.351 239.474 222.155C239.472 221.99 239.402 221.855 239.266 221.75C239.129 221.642 238.919 221.56 238.635 221.503L237.501 221.277C236.862 221.149 236.386 220.928 236.074 220.612C235.764 220.297 235.609 219.895 235.609 219.406C235.609 218.986 235.723 218.624 235.95 218.32C236.18 218.016 236.503 217.781 236.918 217.616C237.335 217.452 237.824 217.369 238.384 217.369C239.21 217.369 239.861 217.544 240.335 217.893C240.813 218.243 241.091 218.719 241.17 219.321ZM245.446 224.128C244.772 224.128 244.193 223.991 243.707 223.719C243.224 223.443 242.852 223.054 242.591 222.551C242.329 222.045 242.199 221.447 242.199 220.757C242.199 220.084 242.329 219.493 242.591 218.984C242.852 218.476 243.22 218.08 243.694 217.795C244.172 217.511 244.731 217.369 245.373 217.369C245.805 217.369 246.207 217.439 246.579 217.578C246.954 217.714 247.281 217.92 247.559 218.196C247.841 218.472 248.059 218.818 248.216 219.236C248.372 219.651 248.45 220.136 248.45 220.693V221.192H242.923V220.067H246.741C246.741 219.805 246.684 219.574 246.571 219.372C246.457 219.17 246.299 219.013 246.098 218.899C245.899 218.783 245.667 218.724 245.403 218.724C245.127 218.724 244.883 218.788 244.67 218.916C244.46 219.041 244.295 219.21 244.176 219.423C244.056 219.634 243.995 219.868 243.993 220.126V221.196C243.993 221.52 244.052 221.8 244.172 222.036C244.294 222.271 244.466 222.453 244.687 222.581C244.909 222.709 245.172 222.773 245.475 222.773C245.677 222.773 245.862 222.744 246.029 222.688C246.197 222.631 246.341 222.545 246.46 222.432C246.579 222.318 246.67 222.179 246.733 222.014L248.412 222.125C248.326 222.528 248.152 222.881 247.887 223.182C247.626 223.48 247.288 223.713 246.873 223.881C246.461 224.045 245.985 224.128 245.446 224.128ZM251.501 224.124C251.083 224.124 250.711 224.051 250.385 223.906C250.058 223.759 249.799 223.541 249.609 223.254C249.422 222.964 249.328 222.604 249.328 222.172C249.328 221.808 249.395 221.503 249.528 221.256C249.662 221.009 249.843 220.81 250.074 220.659C250.304 220.509 250.565 220.395 250.858 220.318C251.153 220.241 251.463 220.188 251.787 220.156C252.167 220.116 252.474 220.08 252.707 220.045C252.94 220.009 253.109 219.955 253.214 219.884C253.319 219.812 253.372 219.707 253.372 219.568V219.543C253.372 219.273 253.287 219.064 253.116 218.916C252.949 218.768 252.71 218.695 252.4 218.695C252.074 218.695 251.814 218.767 251.62 218.912C251.427 219.054 251.299 219.233 251.237 219.449L249.558 219.312C249.643 218.915 249.811 218.571 250.061 218.281C250.311 217.989 250.633 217.764 251.028 217.608C251.426 217.449 251.886 217.369 252.409 217.369C252.772 217.369 253.12 217.412 253.453 217.497C253.788 217.582 254.085 217.714 254.343 217.893C254.605 218.072 254.811 218.303 254.961 218.584C255.112 218.862 255.187 219.196 255.187 219.585V224H253.466V223.092H253.414C253.309 223.297 253.169 223.477 252.993 223.634C252.816 223.787 252.605 223.908 252.358 223.996C252.11 224.081 251.825 224.124 251.501 224.124ZM252.021 222.871C252.288 222.871 252.524 222.818 252.728 222.713C252.933 222.605 253.093 222.46 253.21 222.278C253.326 222.097 253.385 221.891 253.385 221.661V220.966C253.328 221.003 253.25 221.037 253.15 221.068C253.054 221.097 252.944 221.124 252.822 221.149C252.7 221.172 252.578 221.193 252.456 221.213C252.333 221.23 252.223 221.246 252.123 221.26C251.91 221.291 251.724 221.341 251.565 221.409C251.406 221.477 251.282 221.57 251.194 221.686C251.106 221.8 251.062 221.942 251.062 222.112C251.062 222.359 251.152 222.548 251.331 222.679C251.512 222.807 251.743 222.871 252.021 222.871ZM256.596 224V217.455H258.355V218.597H258.424C258.543 218.19 258.743 217.884 259.025 217.676C259.306 217.466 259.63 217.361 259.996 217.361C260.087 217.361 260.185 217.366 260.29 217.378C260.395 217.389 260.488 217.405 260.567 217.425V219.036C260.482 219.01 260.364 218.987 260.213 218.967C260.063 218.947 259.925 218.938 259.8 218.938C259.533 218.938 259.294 218.996 259.084 219.112C258.877 219.226 258.712 219.385 258.59 219.589C258.471 219.794 258.411 220.03 258.411 220.297V224H256.596ZM264.158 224.128C263.488 224.128 262.911 223.986 262.428 223.702C261.948 223.415 261.579 223.017 261.32 222.509C261.065 222 260.937 221.415 260.937 220.753C260.937 220.082 261.066 219.494 261.325 218.989C261.586 218.48 261.957 218.084 262.437 217.8C262.917 217.513 263.488 217.369 264.15 217.369C264.721 217.369 265.221 217.473 265.65 217.68C266.079 217.888 266.418 218.179 266.668 218.554C266.918 218.929 267.056 219.369 267.082 219.875H265.369C265.32 219.548 265.192 219.286 264.985 219.087C264.781 218.885 264.512 218.784 264.18 218.784C263.898 218.784 263.653 218.861 263.442 219.014C263.235 219.165 263.073 219.385 262.957 219.675C262.84 219.964 262.782 220.315 262.782 220.727C262.782 221.145 262.839 221.5 262.952 221.793C263.069 222.085 263.232 222.308 263.442 222.462C263.653 222.615 263.898 222.692 264.18 222.692C264.387 222.692 264.573 222.649 264.738 222.564C264.906 222.479 265.043 222.355 265.151 222.193C265.262 222.028 265.335 221.831 265.369 221.601H267.082C267.053 222.101 266.917 222.541 266.673 222.922C266.431 223.3 266.097 223.595 265.671 223.808C265.245 224.021 264.741 224.128 264.158 224.128ZM270.059 220.216V224H268.244V215.273H270.008V218.609H270.085C270.233 218.223 270.471 217.92 270.801 217.702C271.13 217.48 271.544 217.369 272.041 217.369C272.495 217.369 272.892 217.469 273.23 217.668C273.571 217.864 273.835 218.146 274.022 218.516C274.213 218.882 274.306 219.321 274.304 219.832V224H272.488V220.156C272.491 219.753 272.389 219.439 272.181 219.214C271.977 218.99 271.69 218.878 271.321 218.878C271.074 218.878 270.855 218.93 270.664 219.036C270.477 219.141 270.329 219.294 270.221 219.496C270.116 219.695 270.062 219.935 270.059 220.216ZM275.732 224V217.455H277.548V224H275.732ZM276.644 216.611C276.374 216.611 276.143 216.521 275.95 216.342C275.759 216.161 275.664 215.943 275.664 215.69C275.664 215.44 275.759 215.226 275.95 215.047C276.143 214.865 276.374 214.774 276.644 214.774C276.914 214.774 277.144 214.865 277.335 215.047C277.528 215.226 277.624 215.44 277.624 215.69C277.624 215.943 277.528 216.161 277.335 216.342C277.144 216.521 276.914 216.611 276.644 216.611ZM280.817 220.216V224H279.002V217.455H280.732V218.609H280.809C280.953 218.229 281.196 217.928 281.537 217.706C281.878 217.482 282.292 217.369 282.777 217.369C283.232 217.369 283.628 217.469 283.966 217.668C284.304 217.866 284.567 218.151 284.755 218.52C284.942 218.886 285.036 219.324 285.036 219.832V224H283.221V220.156C283.223 219.756 283.121 219.443 282.914 219.219C282.706 218.991 282.421 218.878 282.057 218.878C281.813 218.878 281.597 218.93 281.409 219.036C281.225 219.141 281.08 219.294 280.975 219.496C280.873 219.695 280.82 219.935 280.817 220.216ZM289.415 226.591C288.827 226.591 288.323 226.51 287.903 226.348C287.485 226.189 287.153 225.972 286.906 225.696C286.658 225.42 286.498 225.111 286.424 224.767L288.103 224.541C288.154 224.672 288.235 224.794 288.346 224.908C288.457 225.021 288.603 225.112 288.785 225.18C288.969 225.251 289.194 225.287 289.458 225.287C289.853 225.287 290.178 225.19 290.434 224.997C290.692 224.807 290.822 224.487 290.822 224.038V222.841H290.745C290.665 223.023 290.546 223.195 290.387 223.357C290.228 223.518 290.023 223.651 289.773 223.753C289.523 223.855 289.225 223.906 288.879 223.906C288.387 223.906 287.94 223.793 287.536 223.565C287.136 223.335 286.816 222.984 286.577 222.513C286.342 222.038 286.224 221.439 286.224 220.714C286.224 219.973 286.344 219.354 286.586 218.857C286.827 218.359 287.148 217.987 287.549 217.74C287.952 217.493 288.394 217.369 288.874 217.369C289.241 217.369 289.548 217.432 289.795 217.557C290.042 217.679 290.241 217.832 290.391 218.017C290.545 218.199 290.663 218.378 290.745 218.554H290.813V217.455H292.616V224.064C292.616 224.621 292.479 225.087 292.207 225.462C291.934 225.837 291.556 226.118 291.073 226.305C290.593 226.496 290.04 226.591 289.415 226.591ZM289.454 222.543C289.746 222.543 289.994 222.47 290.195 222.325C290.4 222.178 290.556 221.967 290.664 221.695C290.775 221.419 290.83 221.089 290.83 220.706C290.83 220.322 290.776 219.99 290.668 219.709C290.56 219.425 290.404 219.205 290.2 219.048C289.995 218.892 289.746 218.814 289.454 218.814C289.156 218.814 288.904 218.895 288.7 219.057C288.495 219.216 288.34 219.437 288.235 219.722C288.13 220.006 288.077 220.334 288.077 220.706C288.077 221.084 288.13 221.411 288.235 221.686C288.343 221.959 288.498 222.17 288.7 222.321C288.904 222.469 289.156 222.543 289.454 222.543Z" fill="#2F6B6B"/>
<path d="M253.67 230.321L252.009 230.423C251.98 230.281 251.919 230.153 251.825 230.04C251.732 229.923 251.608 229.831 251.455 229.763C251.304 229.692 251.124 229.656 250.913 229.656C250.632 229.656 250.395 229.716 250.202 229.835C250.009 229.952 249.912 230.108 249.912 230.304C249.912 230.46 249.974 230.592 250.099 230.7C250.224 230.808 250.439 230.895 250.743 230.96L251.928 231.199C252.564 231.33 253.038 231.54 253.351 231.83C253.663 232.119 253.82 232.5 253.82 232.972C253.82 233.401 253.693 233.777 253.44 234.101C253.19 234.425 252.847 234.678 252.409 234.859C251.974 235.038 251.473 235.128 250.905 235.128C250.038 235.128 249.348 234.947 248.834 234.587C248.322 234.223 248.023 233.729 247.935 233.104L249.72 233.01C249.774 233.274 249.905 233.476 250.112 233.615C250.32 233.751 250.585 233.82 250.909 233.82C251.227 233.82 251.483 233.759 251.676 233.636C251.872 233.511 251.972 233.351 251.974 233.155C251.972 232.99 251.902 232.855 251.766 232.75C251.629 232.642 251.419 232.56 251.135 232.503L250.001 232.277C249.362 232.149 248.886 231.928 248.574 231.612C248.264 231.297 248.109 230.895 248.109 230.406C248.109 229.986 248.223 229.624 248.45 229.32C248.68 229.016 249.003 228.781 249.418 228.616C249.835 228.452 250.324 228.369 250.884 228.369C251.71 228.369 252.361 228.544 252.835 228.893C253.313 229.243 253.591 229.719 253.67 230.321ZM258.444 228.455V229.818H254.502V228.455H258.444ZM255.397 226.886H257.213V232.989C257.213 233.156 257.238 233.287 257.289 233.381C257.341 233.472 257.412 233.536 257.502 233.572C257.596 233.609 257.704 233.628 257.826 233.628C257.912 233.628 257.997 233.621 258.082 233.607C258.167 233.589 258.233 233.577 258.278 233.568L258.564 234.919C258.473 234.947 258.345 234.98 258.18 235.017C258.015 235.057 257.815 235.081 257.579 235.089C257.142 235.107 256.758 235.048 256.429 234.915C256.102 234.781 255.848 234.574 255.666 234.293C255.484 234.011 255.395 233.656 255.397 233.227V226.886ZM262.514 235.128C261.852 235.128 261.279 234.987 260.797 234.706C260.316 234.422 259.946 234.027 259.684 233.521C259.423 233.013 259.292 232.423 259.292 231.753C259.292 231.077 259.423 230.486 259.684 229.98C259.946 229.472 260.316 229.077 260.797 228.795C261.279 228.511 261.852 228.369 262.514 228.369C263.176 228.369 263.747 228.511 264.227 228.795C264.71 229.077 265.082 229.472 265.343 229.98C265.605 230.486 265.735 231.077 265.735 231.753C265.735 232.423 265.605 233.013 265.343 233.521C265.082 234.027 264.71 234.422 264.227 234.706C263.747 234.987 263.176 235.128 262.514 235.128ZM262.522 233.722C262.824 233.722 263.075 233.636 263.277 233.466C263.478 233.293 263.63 233.057 263.733 232.759C263.838 232.46 263.89 232.121 263.89 231.74C263.89 231.359 263.838 231.02 263.733 230.722C263.63 230.423 263.478 230.187 263.277 230.014C263.075 229.841 262.824 229.754 262.522 229.754C262.218 229.754 261.963 229.841 261.755 230.014C261.551 230.187 261.396 230.423 261.291 230.722C261.189 231.02 261.137 231.359 261.137 231.74C261.137 232.121 261.189 232.46 261.291 232.759C261.396 233.057 261.551 233.293 261.755 233.466C261.963 233.636 262.218 233.722 262.522 233.722ZM266.916 237.455V228.455H268.706V229.554H268.787C268.866 229.378 268.981 229.199 269.132 229.017C269.285 228.832 269.484 228.679 269.728 228.557C269.975 228.432 270.282 228.369 270.649 228.369C271.126 228.369 271.566 228.494 271.97 228.744C272.373 228.991 272.696 229.365 272.937 229.865C273.179 230.362 273.299 230.986 273.299 231.736C273.299 232.466 273.181 233.082 272.946 233.585C272.713 234.085 272.395 234.464 271.991 234.723C271.591 234.979 271.142 235.107 270.645 235.107C270.292 235.107 269.993 235.048 269.745 234.932C269.501 234.815 269.301 234.669 269.145 234.493C268.988 234.314 268.869 234.134 268.787 233.952H268.731V237.455H266.916ZM268.693 231.727C268.693 232.116 268.747 232.456 268.855 232.746C268.963 233.036 269.119 233.261 269.324 233.423C269.528 233.582 269.777 233.662 270.069 233.662C270.365 233.662 270.615 233.581 270.819 233.419C271.024 233.254 271.179 233.027 271.284 232.737C271.392 232.445 271.446 232.108 271.446 231.727C271.446 231.349 271.393 231.017 271.288 230.73C271.183 230.443 271.028 230.219 270.824 230.057C270.619 229.895 270.368 229.814 270.069 229.814C269.774 229.814 269.524 229.892 269.319 230.048C269.118 230.205 268.963 230.426 268.855 230.713C268.747 231 268.693 231.338 268.693 231.727ZM279.956 230.321L278.294 230.423C278.265 230.281 278.204 230.153 278.11 230.04C278.017 229.923 277.893 229.831 277.74 229.763C277.589 229.692 277.409 229.656 277.199 229.656C276.917 229.656 276.68 229.716 276.487 229.835C276.294 229.952 276.197 230.108 276.197 230.304C276.197 230.46 276.26 230.592 276.385 230.7C276.51 230.808 276.724 230.895 277.028 230.96L278.213 231.199C278.849 231.33 279.324 231.54 279.636 231.83C279.949 232.119 280.105 232.5 280.105 232.972C280.105 233.401 279.978 233.777 279.725 234.101C279.475 234.425 279.132 234.678 278.694 234.859C278.26 235.038 277.758 235.128 277.19 235.128C276.324 235.128 275.633 234.947 275.119 234.587C274.608 234.223 274.308 233.729 274.22 233.104L276.005 233.01C276.059 233.274 276.19 233.476 276.397 233.615C276.605 233.751 276.87 233.82 277.194 233.82C277.512 233.82 277.768 233.759 277.961 233.636C278.157 233.511 278.257 233.351 278.26 233.155C278.257 232.99 278.187 232.855 278.051 232.75C277.914 232.642 277.704 232.56 277.42 232.503L276.287 232.277C275.647 232.149 275.172 231.928 274.859 231.612C274.549 231.297 274.395 230.895 274.395 230.406C274.395 229.986 274.508 229.624 274.735 229.32C274.966 229.016 275.288 228.781 275.703 228.616C276.12 228.452 276.609 228.369 277.169 228.369C277.995 228.369 278.646 228.544 279.12 228.893C279.598 229.243 279.876 229.719 279.956 230.321Z" fill="#2F6B6B"/>
</svg>
