<svg width="600" height="278" viewBox="0 0 600 278" fill="none" xmlns="http://www.w3.org/2000/svg">
<rect width="600" height="278" rx="2" fill="#222222"/>
<path d="M204.48 30.8C205.813 30.8 206.84 31.2867 207.56 32.26C208.293 33.2333 208.66 34.6133 208.66 36.4C208.66 38.24 208.293 39.6667 207.56 40.68C206.84 41.6933 205.813 42.2 204.48 42.2C203.013 42.2 201.927 41.62 201.22 40.46V45.8H199.42V31H200.78L201.08 32.88C201.8 31.4933 202.933 30.8 204.48 30.8ZM204 40.6C205.013 40.6 205.733 40.3 206.16 39.7C206.587 39.0867 206.8 38.0533 206.8 36.6C206.8 35.0933 206.587 34.02 206.16 33.38C205.733 32.7267 205.013 32.4 204 32.4C202.987 32.4 202.267 32.7067 201.84 33.32C201.427 33.92 201.22 34.9467 201.22 36.4C201.22 37.9067 201.433 38.9867 201.86 39.64C202.287 40.28 203 40.6 204 40.6ZM221.833 32.56C219.74 32.56 217.993 33.12 216.593 34.24V40.4H220.753V42H211.953V40.4H214.793V32.6H212.553V31H216.153L216.493 33.18C217.106 32.38 217.9 31.7467 218.873 31.28C219.86 30.8133 220.846 30.58 221.833 30.58V32.56ZM231.346 26.38V29.06H228.926V26.38H231.346ZM231.026 40.4H234.066V42H225.266V40.4H229.226V32.6H225.866V31H231.026V40.4ZM243.799 30.8C244.746 30.8 245.479 31.08 245.999 31.64C246.532 32.2 246.799 33.0267 246.799 34.12V42H245.019V34.36C245.019 33.0133 244.419 32.34 243.219 32.34C242.632 32.34 242.072 32.5267 241.539 32.9C241.019 33.2733 240.386 33.9333 239.639 34.88V42H237.859V31H239.199L239.539 33.58C240.686 31.7267 242.106 30.8 243.799 30.8ZM259.352 32.6H254.552V38.3C254.552 39.06 254.732 39.6267 255.092 40C255.452 40.36 256.059 40.54 256.912 40.54C257.765 40.54 258.579 40.3667 259.352 40.02V41.74C258.472 42.0467 257.599 42.2 256.732 42.2C255.412 42.2 254.419 41.8733 253.752 41.22C253.085 40.5533 252.752 39.66 252.752 38.54V32.6H250.212V31.44L252.752 31L253.172 28.54H254.552V31H259.352V32.6Z" fill="#FFF500"/>
<path d="M267.825 35.84C267.825 39.36 268.878 42.3467 270.985 44.8H269.085C267.965 43.36 267.145 41.9533 266.625 40.58C266.118 39.2067 265.865 37.7333 265.865 36.16C265.865 34.48 266.118 32.9267 266.625 31.5C267.145 30.0733 267.965 28.64 269.085 27.2H270.985C268.878 29.6533 267.825 32.5333 267.825 35.84ZM356.036 31H358.796V33.96H356.036V31ZM356.036 39.04H358.796V42H356.036V39.04ZM395.835 36.16C395.835 32.64 394.781 29.6533 392.675 27.2H394.575C395.695 28.64 396.508 30.0467 397.015 31.42C397.535 32.7933 397.795 34.2667 397.795 35.84C397.795 37.52 397.535 39.0733 397.015 40.5C396.508 41.9267 395.695 43.36 394.575 44.8H392.675C394.781 42.3467 395.835 39.4667 395.835 36.16Z" fill="white"/>
<path d="M283.638 34.98C283.638 34.06 283.431 33.4 283.018 33C282.604 32.6 281.931 32.4 280.998 32.4C279.838 32.4 279.024 32.7133 278.558 33.34C278.091 33.9667 277.858 35.0267 277.858 36.52C277.858 37.9733 278.104 39.0067 278.598 39.62C279.104 40.2333 279.964 40.54 281.178 40.54C282.471 40.54 283.704 40.1467 284.878 39.36V41.1C283.678 41.8333 282.364 42.2 280.938 42.2C279.391 42.2 278.178 41.7267 277.298 40.78C276.431 39.8333 275.998 38.5067 275.998 36.8C275.998 34.8933 276.438 33.42 277.318 32.38C278.211 31.3267 279.451 30.8 281.038 30.8C282.358 30.8 283.431 31.18 284.258 31.94C285.084 32.7 285.498 33.7133 285.498 34.98H283.638ZM295.311 26.38V29.06H292.891V26.38H295.311ZM294.991 40.4H298.031V42H289.231V40.4H293.191V32.6H289.831V31H294.991V40.4ZM310.524 32.6H305.724V38.3C305.724 39.06 305.904 39.6267 306.264 40C306.624 40.36 307.23 40.54 308.084 40.54C308.937 40.54 309.75 40.3667 310.524 40.02V41.74C309.644 42.0467 308.77 42.2 307.904 42.2C306.584 42.2 305.59 41.8733 304.924 41.22C304.257 40.5533 303.924 39.66 303.924 38.54V32.6H301.384V31.44L303.924 31L304.344 28.54H305.724V31H310.524V32.6ZM322.197 31H324.157L320.317 42.24C319.463 44.7467 317.557 46 314.597 46V44.32C315.73 44.32 316.617 44.1267 317.257 43.74C317.897 43.3667 318.357 42.7867 318.637 42H317.677L313.917 31H315.877L319.037 40.96L322.197 31Z" fill="#00F0FF"/>
<path d="M334.91 28.8H331.73V43.2H334.91V44.8H329.93V27.2H334.91V28.8ZM379.942 27.2H384.902V44.8H379.942V43.2H383.102V28.8H379.942V27.2Z" fill="#B8B8B8"/>
<path d="M346.023 40.32H349.543V42H340.243V40.32H344.143V29.8L340.243 32.6V30.24L343.863 28H346.023V40.32ZM370.529 33.08C371.382 33.08 372.142 33.2 372.809 33.44C373.475 33.6667 374.029 34.0733 374.469 34.66C374.922 35.2333 375.149 35.96 375.149 36.84C375.149 38.5333 374.375 39.8533 372.829 40.8C371.282 41.7467 369.029 42.22 366.069 42.22V40.44C370.829 40.44 373.209 39.3533 373.209 37.18C373.209 36.34 372.889 35.7267 372.249 35.34C371.622 34.94 370.822 34.74 369.849 34.74C369.062 34.74 368.262 34.88 367.449 35.16L365.769 34.02L366.789 28H374.569V29.66H368.269L367.669 33.48C368.615 33.2133 369.569 33.08 370.529 33.08Z" fill="#D86AFF"/>
<path d="M131.116 92.112C131.116 90.352 130.804 89.064 130.18 88.248C129.556 87.432 128.604 87.024 127.324 87.024C125.9 87.024 124.876 87.544 124.252 88.584C123.628 89.608 123.316 91.288 123.316 93.624C123.316 95.96 123.628 97.632 124.252 98.64C124.876 99.648 125.908 100.152 127.348 100.152C129.028 100.152 130.724 99.608 132.436 98.52V100.848C130.66 101.776 128.876 102.24 127.084 102.24C125.148 102.24 123.644 101.528 122.572 100.104C121.516 98.68 120.988 96.672 120.988 94.08C120.988 91.168 121.556 88.92 122.692 87.336C123.844 85.752 125.468 84.96 127.564 84.96C129.388 84.96 130.82 85.592 131.86 86.856C132.916 88.104 133.444 89.856 133.444 92.112H131.116ZM318.898 102.24C317.122 102.24 315.754 101.68 314.794 100.56C313.834 99.424 313.354 97.824 313.354 95.76C313.354 93.472 313.882 91.704 314.938 90.456C315.994 89.192 317.474 88.56 319.378 88.56C321.154 88.56 322.522 89.12 323.482 90.24C324.458 91.36 324.946 92.952 324.946 95.016C324.946 97.32 324.418 99.104 323.362 100.368C322.306 101.616 320.818 102.24 318.898 102.24ZM316.378 99.168C316.922 99.888 317.842 100.248 319.138 100.248C320.434 100.248 321.346 99.88 321.874 99.144C322.418 98.392 322.69 97.128 322.69 95.352C322.69 93.592 322.418 92.352 321.874 91.632C321.346 90.912 320.434 90.552 319.138 90.552C317.858 90.552 316.946 90.92 316.402 91.656C315.858 92.392 315.586 93.648 315.586 95.424C315.586 97.184 315.85 98.432 316.378 99.168ZM363.697 90.672C361.185 90.672 359.089 91.344 357.409 92.688V100.08H362.401V102H351.841V100.08H355.249V90.72H352.561V88.8H356.881L357.289 91.416C358.025 90.456 358.977 89.696 360.145 89.136C361.329 88.576 362.513 88.296 363.697 88.296V90.672ZM397.745 88.56C398.881 88.56 399.761 88.896 400.385 89.568C401.025 90.24 401.345 91.232 401.345 92.544V102H399.209V92.832C399.209 91.216 398.489 90.408 397.049 90.408C396.345 90.408 395.673 90.632 395.033 91.08C394.409 91.528 393.649 92.32 392.753 93.456V102H390.617V88.8H392.225L392.633 91.896C394.009 89.672 395.713 88.56 397.745 88.56ZM436.545 83.256V86.472H433.641V83.256H436.545ZM436.161 100.08H439.809V102H429.249V100.08H434.001V90.72H429.969V88.8H436.161V100.08ZM478.344 102H476.208L475.728 99.384C474.832 101.288 473.304 102.24 471.144 102.24C469.88 102.24 468.896 101.928 468.192 101.304C467.488 100.664 467.136 99.776 467.136 98.64C467.136 97.152 467.784 96.032 469.08 95.28C470.376 94.512 472.496 94.12 475.44 94.104V92.976C475.44 91.36 474.536 90.552 472.728 90.552C471.288 90.552 469.816 90.928 468.312 91.68V89.616C469.944 88.912 471.504 88.56 472.992 88.56C474.448 88.56 475.576 88.936 476.376 89.688C477.192 90.424 477.6 91.448 477.6 92.76V97.944L478.344 102ZM471.648 100.248C472.768 100.248 473.68 99.904 474.384 99.216C475.088 98.528 475.44 97.656 475.44 96.6V95.544C473.264 95.56 471.704 95.776 470.76 96.192C469.832 96.592 469.368 97.28 469.368 98.256C469.368 99.584 470.128 100.248 471.648 100.248Z" fill="#6B6B6B"/>
<path d="M171.404 102H168.884L168.428 99.528C167.516 101.336 166.012 102.24 163.916 102.24C162.62 102.24 161.604 101.92 160.868 101.28C160.148 100.624 159.788 99.72 159.788 98.568C159.788 97.096 160.428 95.976 161.708 95.208C162.988 94.424 165.124 94.024 168.116 94.008V93C168.116 91.608 167.26 90.912 165.548 90.912C164.092 90.912 162.596 91.256 161.06 91.944V89.544C162.804 88.888 164.396 88.56 165.836 88.56C167.34 88.56 168.516 88.944 169.364 89.712C170.228 90.464 170.66 91.48 170.66 92.76V97.944L171.404 102ZM164.54 99.888C165.612 99.888 166.476 99.592 167.132 99C167.788 98.392 168.116 97.592 168.116 96.6V95.64C166.052 95.656 164.588 95.848 163.724 96.216C162.876 96.584 162.452 97.216 162.452 98.112C162.452 99.296 163.148 99.888 164.54 99.888ZM207.347 99.888C208.387 99.888 209.387 99.592 210.347 99V101.352C209.211 101.944 208.051 102.24 206.867 102.24C205.347 102.24 204.163 101.776 203.315 100.848C202.483 99.92 202.067 98.552 202.067 96.744V86.496H197.579V84.24H204.611V96.552C204.611 98.776 205.523 99.888 207.347 99.888ZM244.707 83.016V86.52H241.539V83.016H244.707ZM244.395 99.744H248.091V102H237.051V99.744H241.851V91.056H237.771V88.8H244.395V99.744ZM283.722 86.16C281.77 86.16 280.794 86.84 280.794 88.2V88.92H286.722V91.056H280.794V102H278.25V91.056H275.01V88.92H278.25V88.368C278.25 87.008 278.706 85.944 279.618 85.176C280.53 84.392 281.794 84 283.41 84C284.53 84 285.634 84.168 286.722 84.504V86.712C285.746 86.344 284.746 86.16 283.722 86.16Z" fill="white"/>
<path d="M126.94 139.24C125.052 139.24 123.588 138.528 122.548 137.104C121.524 135.68 121.012 133.672 121.012 131.08C121.012 128.168 121.572 125.92 122.692 124.336C123.812 122.752 125.404 121.96 127.468 121.96C129.34 121.96 130.788 122.672 131.812 124.096C132.836 125.504 133.348 127.504 133.348 130.096C133.348 133.008 132.788 135.264 131.668 136.864C130.564 138.448 128.988 139.24 126.94 139.24ZM124.132 135.736C124.708 136.68 125.724 137.152 127.18 137.152C128.636 137.152 129.652 136.672 130.228 135.712C130.804 134.736 131.092 133.016 131.092 130.552C131.092 128.12 130.804 126.424 130.228 125.464C129.668 124.504 128.66 124.024 127.204 124.024C125.748 124.024 124.732 124.512 124.156 125.488C123.58 126.448 123.292 128.16 123.292 130.624C123.292 133.072 123.572 134.776 124.132 135.736ZM125.524 128.848H128.836V132.328H125.524V128.848ZM358.465 127.84C360.081 127.84 361.337 128.312 362.233 129.256C363.129 130.2 363.577 131.56 363.577 133.336C363.577 135.192 363.065 136.64 362.041 137.68C361.017 138.72 359.585 139.24 357.745 139.24C355.729 139.24 354.185 138.616 353.113 137.368C352.057 136.104 351.529 134.272 351.529 131.872C351.529 128.608 352.345 126.144 353.977 124.48C355.609 122.8 358.025 121.96 361.225 121.96V124.072C358.841 124.072 357.049 124.56 355.849 125.536C354.649 126.496 353.977 127.984 353.833 130C354.233 129.312 354.841 128.784 355.657 128.416C356.489 128.032 357.425 127.84 358.465 127.84ZM357.649 137.176C358.929 137.176 359.849 136.888 360.409 136.312C360.985 135.736 361.273 134.808 361.273 133.528C361.273 132.248 360.985 131.32 360.409 130.744C359.849 130.168 358.929 129.88 357.649 129.88C356.369 129.88 355.441 130.168 354.865 130.744C354.289 131.304 354.001 132.224 354.001 133.504C354.001 134.8 354.281 135.736 354.841 136.312C355.417 136.888 356.353 137.176 357.649 137.176ZM390.161 122.2H401.921V124.504C399.937 126.888 398.521 129.184 397.673 131.392C396.841 133.6 396.425 136.136 396.425 139H394.049C394.049 136.52 394.561 134 395.585 131.44C396.609 128.864 398.065 126.448 399.953 124.192H390.161V122.2ZM436.857 130.12C438.041 130.536 438.961 131.056 439.617 131.68C440.273 132.304 440.601 133.2 440.601 134.368C440.601 135.888 440.033 137.08 438.897 137.944C437.761 138.808 436.169 139.24 434.121 139.24C432.185 139.24 430.681 138.84 429.609 138.04C428.553 137.24 428.025 136.128 428.025 134.704C428.025 133.536 428.353 132.576 429.009 131.824C429.681 131.056 430.521 130.488 431.529 130.12C429.769 129.32 428.889 128.064 428.889 126.352C428.889 124.96 429.377 123.88 430.353 123.112C431.345 122.344 432.729 121.96 434.505 121.96C436.169 121.96 437.457 122.32 438.369 123.04C439.297 123.76 439.761 124.768 439.761 126.064C439.761 127.088 439.489 127.944 438.945 128.632C438.401 129.304 437.705 129.8 436.857 130.12ZM434.313 124.024C432.249 124.024 431.217 124.768 431.217 126.256C431.217 127.152 431.529 127.832 432.153 128.296C432.793 128.744 433.729 129.16 434.961 129.544C435.729 129.336 436.329 128.96 436.761 128.416C437.209 127.872 437.433 127.2 437.433 126.4C437.433 125.568 437.177 124.968 436.665 124.6C436.169 124.216 435.385 124.024 434.313 124.024ZM434.361 137.176C436.969 137.176 438.273 136.296 438.273 134.536C438.273 134.088 438.177 133.68 437.985 133.312C437.809 132.944 437.617 132.656 437.409 132.448C437.201 132.224 436.841 132 436.329 131.776C435.833 131.552 435.457 131.4 435.201 131.32C434.945 131.24 434.489 131.104 433.833 130.912C433.721 130.88 433.641 130.856 433.593 130.84C431.433 131.4 430.353 132.544 430.353 134.272C430.353 135.264 430.673 136 431.313 136.48C431.969 136.944 432.985 137.176 434.361 137.176ZM472.488 121.96C474.504 121.96 476.04 122.592 477.096 123.856C478.168 125.104 478.704 126.928 478.704 129.328C478.704 132.592 477.888 135.064 476.256 136.744C474.624 138.408 472.208 139.24 469.008 139.24V137.104C471.392 137.104 473.184 136.624 474.384 135.664C475.6 134.688 476.272 133.2 476.4 131.2C476 131.888 475.384 132.416 474.552 132.784C473.72 133.152 472.792 133.336 471.768 133.336C470.152 133.336 468.896 132.864 468 131.92C467.104 130.976 466.656 129.616 466.656 127.84C466.656 125.984 467.168 124.544 468.192 123.52C469.216 122.48 470.648 121.96 472.488 121.96ZM469.824 130.456C470.4 131.032 471.328 131.32 472.608 131.32C473.888 131.32 474.808 131.04 475.368 130.48C475.944 129.904 476.232 128.976 476.232 127.696C476.232 126.4 475.944 125.464 475.368 124.888C474.808 124.312 473.88 124.024 472.584 124.024C471.304 124.024 470.376 124.312 469.8 124.888C469.24 125.464 468.96 126.392 468.96 127.672C468.96 128.952 469.248 129.88 469.824 130.456Z" fill="#6B6B6B"/>
<path d="M167.468 136.648H171.644V139H160.124V136.648H164.78V124.792L160.124 128.224V124.816L164.396 122.2H167.468V136.648Z" fill="#60FF70"/>
<path d="M201.131 136.648H210.035V139H198.131V136.288L204.419 130.984C205.395 130.168 206.067 129.464 206.435 128.872C206.803 128.28 206.987 127.664 206.987 127.024C206.987 125.248 205.819 124.36 203.483 124.36C201.995 124.36 200.507 124.8 199.019 125.68V123.064C200.587 122.328 202.211 121.96 203.891 121.96C205.715 121.96 207.147 122.384 208.187 123.232C209.227 124.064 209.747 125.224 209.747 126.712C209.747 127.8 209.427 128.864 208.787 129.904C208.163 130.928 207.107 132.016 205.619 133.168L201.131 136.648ZM243.291 128.44C244.907 128.664 246.155 129.16 247.035 129.928C247.915 130.696 248.355 131.696 248.355 132.928C248.355 134.912 247.355 136.464 245.355 137.584C243.355 138.704 240.579 139.264 237.027 139.264V136.768C239.843 136.768 241.971 136.456 243.411 135.832C244.867 135.208 245.595 134.32 245.595 133.168C245.595 132.24 245.163 131.56 244.299 131.128C243.451 130.696 242.099 130.48 240.243 130.48L239.595 128.776L244.419 124.552H237.027V122.2H247.083V124.912L243.291 128.44ZM287.322 133.048V135.4H284.682V139H281.994V135.4H274.218V132.688L281.538 122.2H284.682V133.048H287.322ZM276.81 133.048H281.994V125.632L276.81 133.048Z" fill="#60FF70"/>
<path d="M319.594 128.152C321.21 128.152 322.546 128.52 323.602 129.256C324.674 129.992 325.21 131.144 325.21 132.712C325.21 134.792 324.266 136.408 322.378 137.56C320.506 138.696 317.77 139.264 314.17 139.264V136.768C319.69 136.768 322.45 135.568 322.45 133.168C322.45 132.24 322.082 131.56 321.346 131.128C320.61 130.696 319.682 130.48 318.562 130.48C317.65 130.48 316.762 130.616 315.898 130.888L313.57 129.304L314.77 122.2H324.466V124.552H316.858L316.258 128.608C317.378 128.304 318.49 128.152 319.594 128.152Z" fill="#FFE76B"/>
<path d="M166 161.333C164.527 161.333 163.333 162.527 163.333 164C163.333 165.473 164.527 166.667 166 166.667C167.473 166.667 168.667 165.473 168.667 164C168.667 162.527 167.473 161.333 166 161.333ZM165.5 154L165.5 164L166.5 164L166.5 154L165.5 154Z" fill="white"/>
<path d="M152.67 179.321L151.009 179.423C150.98 179.281 150.919 179.153 150.825 179.04C150.732 178.923 150.608 178.831 150.455 178.763C150.304 178.692 150.124 178.656 149.913 178.656C149.632 178.656 149.395 178.716 149.202 178.835C149.009 178.952 148.912 179.108 148.912 179.304C148.912 179.46 148.974 179.592 149.099 179.7C149.224 179.808 149.439 179.895 149.743 179.96L150.928 180.199C151.564 180.33 152.038 180.54 152.351 180.83C152.663 181.119 152.82 181.5 152.82 181.972C152.82 182.401 152.693 182.777 152.44 183.101C152.19 183.425 151.847 183.678 151.409 183.859C150.974 184.038 150.473 184.128 149.905 184.128C149.038 184.128 148.348 183.947 147.834 183.587C147.322 183.223 147.023 182.729 146.935 182.104L148.72 182.01C148.774 182.274 148.905 182.476 149.112 182.615C149.32 182.751 149.585 182.82 149.909 182.82C150.227 182.82 150.483 182.759 150.676 182.636C150.872 182.511 150.972 182.351 150.974 182.155C150.972 181.99 150.902 181.855 150.766 181.75C150.629 181.642 150.419 181.56 150.135 181.503L149.001 181.277C148.362 181.149 147.886 180.928 147.574 180.612C147.264 180.297 147.109 179.895 147.109 179.406C147.109 178.986 147.223 178.624 147.45 178.32C147.68 178.016 148.003 177.781 148.418 177.616C148.835 177.452 149.324 177.369 149.884 177.369C150.71 177.369 151.361 177.544 151.835 177.893C152.313 178.243 152.591 178.719 152.67 179.321ZM155.778 175.273V184H153.963V175.273H155.778ZM157.232 184V177.455H159.048V184H157.232ZM158.144 176.611C157.874 176.611 157.643 176.521 157.45 176.342C157.259 176.161 157.164 175.943 157.164 175.69C157.164 175.44 157.259 175.226 157.45 175.047C157.643 174.865 157.874 174.774 158.144 174.774C158.414 174.774 158.644 174.865 158.835 175.047C159.028 175.226 159.124 175.44 159.124 175.69C159.124 175.943 159.028 176.161 158.835 176.342C158.644 176.521 158.414 176.611 158.144 176.611ZM163.459 184.128C162.789 184.128 162.212 183.986 161.729 183.702C161.249 183.415 160.88 183.017 160.621 182.509C160.365 182 160.238 181.415 160.238 180.753C160.238 180.082 160.367 179.494 160.625 178.989C160.887 178.48 161.257 178.084 161.738 177.8C162.218 177.513 162.789 177.369 163.451 177.369C164.022 177.369 164.522 177.473 164.951 177.68C165.38 177.888 165.719 178.179 165.969 178.554C166.219 178.929 166.357 179.369 166.382 179.875H164.669C164.621 179.548 164.493 179.286 164.286 179.087C164.081 178.885 163.813 178.784 163.48 178.784C163.199 178.784 162.953 178.861 162.743 179.014C162.536 179.165 162.374 179.385 162.257 179.675C162.141 179.964 162.083 180.315 162.083 180.727C162.083 181.145 162.14 181.5 162.253 181.793C162.37 182.085 162.533 182.308 162.743 182.462C162.953 182.615 163.199 182.692 163.48 182.692C163.688 182.692 163.874 182.649 164.039 182.564C164.206 182.479 164.344 182.355 164.452 182.193C164.563 182.028 164.635 181.831 164.669 181.601H166.382C166.354 182.101 166.218 182.541 165.973 182.922C165.732 183.3 165.398 183.595 164.972 183.808C164.546 184.021 164.042 184.128 163.459 184.128ZM167.545 184V177.455H169.36V184H167.545ZM168.457 176.611C168.187 176.611 167.955 176.521 167.762 176.342C167.572 176.161 167.477 175.943 167.477 175.69C167.477 175.44 167.572 175.226 167.762 175.047C167.955 174.865 168.187 174.774 168.457 174.774C168.727 174.774 168.957 174.865 169.147 175.047C169.34 175.226 169.437 175.44 169.437 175.69C169.437 175.943 169.34 176.161 169.147 176.342C168.957 176.521 168.727 176.611 168.457 176.611ZM172.63 180.216V184H170.814V177.455H172.544V178.609H172.621C172.766 178.229 173.009 177.928 173.35 177.706C173.691 177.482 174.104 177.369 174.59 177.369C175.044 177.369 175.441 177.469 175.779 177.668C176.117 177.866 176.38 178.151 176.567 178.52C176.755 178.886 176.848 179.324 176.848 179.832V184H175.033V180.156C175.036 179.756 174.934 179.443 174.726 179.219C174.519 178.991 174.233 178.878 173.87 178.878C173.625 178.878 173.409 178.93 173.222 179.036C173.037 179.141 172.892 179.294 172.787 179.496C172.685 179.695 172.632 179.935 172.63 180.216ZM181.228 186.591C180.64 186.591 180.136 186.51 179.715 186.348C179.298 186.189 178.965 185.972 178.718 185.696C178.471 185.42 178.31 185.111 178.237 184.767L179.915 184.541C179.967 184.672 180.048 184.794 180.158 184.908C180.269 185.021 180.415 185.112 180.597 185.18C180.782 185.251 181.006 185.287 181.271 185.287C181.665 185.287 181.991 185.19 182.246 184.997C182.505 184.807 182.634 184.487 182.634 184.038V182.841H182.558C182.478 183.023 182.359 183.195 182.2 183.357C182.04 183.518 181.836 183.651 181.586 183.753C181.336 183.855 181.038 183.906 180.691 183.906C180.2 183.906 179.752 183.793 179.349 183.565C178.948 183.335 178.629 182.984 178.39 182.513C178.154 182.038 178.036 181.439 178.036 180.714C178.036 179.973 178.157 179.354 178.398 178.857C178.64 178.359 178.961 177.987 179.362 177.74C179.765 177.493 180.207 177.369 180.687 177.369C181.053 177.369 181.36 177.432 181.607 177.557C181.854 177.679 182.053 177.832 182.204 178.017C182.357 178.199 182.475 178.378 182.558 178.554H182.626V177.455H184.428V184.064C184.428 184.621 184.292 185.087 184.019 185.462C183.746 185.837 183.369 186.118 182.886 186.305C182.406 186.496 181.853 186.591 181.228 186.591ZM181.266 182.543C181.559 182.543 181.806 182.47 182.008 182.325C182.212 182.178 182.369 181.967 182.477 181.695C182.587 181.419 182.643 181.089 182.643 180.706C182.643 180.322 182.589 179.99 182.481 179.709C182.373 179.425 182.217 179.205 182.012 179.048C181.808 178.892 181.559 178.814 181.266 178.814C180.968 178.814 180.717 178.895 180.512 179.057C180.308 179.216 180.153 179.437 180.048 179.722C179.942 180.006 179.89 180.334 179.89 180.706C179.89 181.084 179.942 181.411 180.048 181.686C180.156 181.959 180.31 182.17 180.512 182.321C180.717 182.469 180.968 182.543 181.266 182.543Z" fill="white"/>
<path d="M154.67 190.321L153.009 190.423C152.98 190.281 152.919 190.153 152.825 190.04C152.732 189.923 152.608 189.831 152.455 189.763C152.304 189.692 152.124 189.656 151.913 189.656C151.632 189.656 151.395 189.716 151.202 189.835C151.009 189.952 150.912 190.108 150.912 190.304C150.912 190.46 150.974 190.592 151.099 190.7C151.224 190.808 151.439 190.895 151.743 190.96L152.928 191.199C153.564 191.33 154.038 191.54 154.351 191.83C154.663 192.119 154.82 192.5 154.82 192.972C154.82 193.401 154.693 193.777 154.44 194.101C154.19 194.425 153.847 194.678 153.409 194.859C152.974 195.038 152.473 195.128 151.905 195.128C151.038 195.128 150.348 194.947 149.834 194.587C149.322 194.223 149.023 193.729 148.935 193.104L150.72 193.01C150.774 193.274 150.905 193.476 151.112 193.615C151.32 193.751 151.585 193.82 151.909 193.82C152.227 193.82 152.483 193.759 152.676 193.636C152.872 193.511 152.972 193.351 152.974 193.155C152.972 192.99 152.902 192.855 152.766 192.75C152.629 192.642 152.419 192.56 152.135 192.503L151.001 192.277C150.362 192.149 149.886 191.928 149.574 191.612C149.264 191.297 149.109 190.895 149.109 190.406C149.109 189.986 149.223 189.624 149.45 189.32C149.68 189.016 150.003 188.781 150.418 188.616C150.835 188.452 151.324 188.369 151.884 188.369C152.71 188.369 153.361 188.544 153.835 188.893C154.313 189.243 154.591 189.719 154.67 190.321ZM159.444 188.455V189.818H155.502V188.455H159.444ZM156.397 186.886H158.213V192.989C158.213 193.156 158.238 193.287 158.289 193.381C158.341 193.472 158.412 193.536 158.502 193.572C158.596 193.609 158.704 193.628 158.826 193.628C158.912 193.628 158.997 193.621 159.082 193.607C159.167 193.589 159.233 193.577 159.278 193.568L159.564 194.919C159.473 194.947 159.345 194.98 159.18 195.017C159.015 195.057 158.815 195.081 158.579 195.089C158.142 195.107 157.758 195.048 157.429 194.915C157.102 194.781 156.848 194.574 156.666 194.293C156.484 194.011 156.395 193.656 156.397 193.227V186.886ZM162.493 195.124C162.076 195.124 161.703 195.051 161.377 194.906C161.05 194.759 160.792 194.541 160.601 194.254C160.414 193.964 160.32 193.604 160.32 193.172C160.32 192.808 160.387 192.503 160.52 192.256C160.654 192.009 160.836 191.81 161.066 191.659C161.296 191.509 161.557 191.395 161.85 191.318C162.145 191.241 162.455 191.188 162.779 191.156C163.159 191.116 163.466 191.08 163.699 191.045C163.932 191.009 164.101 190.955 164.206 190.884C164.311 190.812 164.364 190.707 164.364 190.568V190.543C164.364 190.273 164.279 190.064 164.108 189.916C163.941 189.768 163.702 189.695 163.392 189.695C163.066 189.695 162.806 189.767 162.613 189.912C162.419 190.054 162.292 190.233 162.229 190.449L160.55 190.312C160.635 189.915 160.803 189.571 161.053 189.281C161.303 188.989 161.625 188.764 162.02 188.608C162.418 188.449 162.878 188.369 163.401 188.369C163.765 188.369 164.113 188.412 164.445 188.497C164.78 188.582 165.077 188.714 165.336 188.893C165.597 189.072 165.803 189.303 165.953 189.584C166.104 189.862 166.179 190.196 166.179 190.585V195H164.458V194.092H164.407C164.301 194.297 164.161 194.477 163.985 194.634C163.809 194.787 163.597 194.908 163.35 194.996C163.103 195.081 162.817 195.124 162.493 195.124ZM163.013 193.871C163.28 193.871 163.516 193.818 163.721 193.713C163.925 193.605 164.086 193.46 164.202 193.278C164.319 193.097 164.377 192.891 164.377 192.661V191.966C164.32 192.003 164.242 192.037 164.142 192.068C164.046 192.097 163.936 192.124 163.814 192.149C163.692 192.172 163.57 192.193 163.448 192.213C163.326 192.23 163.215 192.246 163.115 192.26C162.902 192.291 162.716 192.341 162.557 192.409C162.398 192.477 162.275 192.57 162.186 192.686C162.098 192.8 162.054 192.942 162.054 193.112C162.054 193.359 162.144 193.548 162.323 193.679C162.505 193.807 162.735 193.871 163.013 193.871ZM167.588 195V188.455H169.348V189.597H169.416C169.535 189.19 169.735 188.884 170.017 188.676C170.298 188.466 170.622 188.361 170.988 188.361C171.079 188.361 171.177 188.366 171.282 188.378C171.387 188.389 171.48 188.405 171.559 188.425V190.036C171.474 190.01 171.356 189.987 171.206 189.967C171.055 189.947 170.917 189.938 170.792 189.938C170.525 189.938 170.287 189.996 170.076 190.112C169.869 190.226 169.704 190.385 169.582 190.589C169.463 190.794 169.403 191.03 169.403 191.297V195H167.588ZM176.308 188.455V189.818H172.366V188.455H176.308ZM173.261 186.886H175.076V192.989C175.076 193.156 175.102 193.287 175.153 193.381C175.204 193.472 175.275 193.536 175.366 193.572C175.46 193.609 175.567 193.628 175.69 193.628C175.775 193.628 175.86 193.621 175.945 193.607C176.031 193.589 176.096 193.577 176.141 193.568L176.427 194.919C176.336 194.947 176.208 194.98 176.043 195.017C175.879 195.057 175.678 195.081 175.442 195.089C175.005 195.107 174.621 195.048 174.292 194.915C173.965 194.781 173.711 194.574 173.529 194.293C173.347 194.011 173.258 193.656 173.261 193.227V186.886ZM182.854 190.321L181.192 190.423C181.164 190.281 181.103 190.153 181.009 190.04C180.915 189.923 180.792 189.831 180.638 189.763C180.488 189.692 180.307 189.656 180.097 189.656C179.816 189.656 179.578 189.716 179.385 189.835C179.192 189.952 179.096 190.108 179.096 190.304C179.096 190.46 179.158 190.592 179.283 190.7C179.408 190.808 179.623 190.895 179.926 190.96L181.111 191.199C181.748 191.33 182.222 191.54 182.534 191.83C182.847 192.119 183.003 192.5 183.003 192.972C183.003 193.401 182.877 193.777 182.624 194.101C182.374 194.425 182.03 194.678 181.593 194.859C181.158 195.038 180.657 195.128 180.088 195.128C179.222 195.128 178.532 194.947 178.017 194.587C177.506 194.223 177.206 193.729 177.118 193.104L178.904 193.01C178.958 193.274 179.088 193.476 179.296 193.615C179.503 193.751 179.769 193.82 180.093 193.82C180.411 193.82 180.667 193.759 180.86 193.636C181.056 193.511 181.155 193.351 181.158 193.155C181.155 192.99 181.086 192.855 180.949 192.75C180.813 192.642 180.603 192.56 180.319 192.503L179.185 192.277C178.546 192.149 178.07 191.928 177.757 191.612C177.448 191.297 177.293 190.895 177.293 190.406C177.293 189.986 177.407 189.624 177.634 189.32C177.864 189.016 178.186 188.781 178.601 188.616C179.019 188.452 179.507 188.369 180.067 188.369C180.894 188.369 181.544 188.544 182.019 188.893C182.496 189.243 182.775 189.719 182.854 190.321Z" fill="white"/>
<path d="M283 161.333C281.527 161.333 280.333 162.527 280.333 164C280.333 165.473 281.527 166.667 283 166.667C284.473 166.667 285.667 165.473 285.667 164C285.667 162.527 284.473 161.333 283 161.333ZM282.5 154L282.5 164L283.5 164L283.5 154L282.5 154Z" fill="white"/>
<path d="M269.67 179.321L268.009 179.423C267.98 179.281 267.919 179.153 267.825 179.04C267.732 178.923 267.608 178.831 267.455 178.763C267.304 178.692 267.124 178.656 266.913 178.656C266.632 178.656 266.395 178.716 266.202 178.835C266.009 178.952 265.912 179.108 265.912 179.304C265.912 179.46 265.974 179.592 266.099 179.7C266.224 179.808 266.439 179.895 266.743 179.96L267.928 180.199C268.564 180.33 269.038 180.54 269.351 180.83C269.663 181.119 269.82 181.5 269.82 181.972C269.82 182.401 269.693 182.777 269.44 183.101C269.19 183.425 268.847 183.678 268.409 183.859C267.974 184.038 267.473 184.128 266.905 184.128C266.038 184.128 265.348 183.947 264.834 183.587C264.322 183.223 264.023 182.729 263.935 182.104L265.72 182.01C265.774 182.274 265.905 182.476 266.112 182.615C266.32 182.751 266.585 182.82 266.909 182.82C267.227 182.82 267.483 182.759 267.676 182.636C267.872 182.511 267.972 182.351 267.974 182.155C267.972 181.99 267.902 181.855 267.766 181.75C267.629 181.642 267.419 181.56 267.135 181.503L266.001 181.277C265.362 181.149 264.886 180.928 264.574 180.612C264.264 180.297 264.109 179.895 264.109 179.406C264.109 178.986 264.223 178.624 264.45 178.32C264.68 178.016 265.003 177.781 265.418 177.616C265.835 177.452 266.324 177.369 266.884 177.369C267.71 177.369 268.361 177.544 268.835 177.893C269.313 178.243 269.591 178.719 269.67 179.321ZM272.778 175.273V184H270.963V175.273H272.778ZM274.232 184V177.455H276.048V184H274.232ZM275.144 176.611C274.874 176.611 274.643 176.521 274.45 176.342C274.259 176.161 274.164 175.943 274.164 175.69C274.164 175.44 274.259 175.226 274.45 175.047C274.643 174.865 274.874 174.774 275.144 174.774C275.414 174.774 275.644 174.865 275.835 175.047C276.028 175.226 276.124 175.44 276.124 175.69C276.124 175.943 276.028 176.161 275.835 176.342C275.644 176.521 275.414 176.611 275.144 176.611ZM280.459 184.128C279.789 184.128 279.212 183.986 278.729 183.702C278.249 183.415 277.88 183.017 277.621 182.509C277.365 182 277.238 181.415 277.238 180.753C277.238 180.082 277.367 179.494 277.625 178.989C277.887 178.48 278.257 178.084 278.738 177.8C279.218 177.513 279.789 177.369 280.451 177.369C281.022 177.369 281.522 177.473 281.951 177.68C282.38 177.888 282.719 178.179 282.969 178.554C283.219 178.929 283.357 179.369 283.382 179.875H281.669C281.621 179.548 281.493 179.286 281.286 179.087C281.081 178.885 280.813 178.784 280.48 178.784C280.199 178.784 279.953 178.861 279.743 179.014C279.536 179.165 279.374 179.385 279.257 179.675C279.141 179.964 279.083 180.315 279.083 180.727C279.083 181.145 279.14 181.5 279.253 181.793C279.37 182.085 279.533 182.308 279.743 182.462C279.953 182.615 280.199 182.692 280.48 182.692C280.688 182.692 280.874 182.649 281.039 182.564C281.206 182.479 281.344 182.355 281.452 182.193C281.563 182.028 281.635 181.831 281.669 181.601H283.382C283.354 182.101 283.218 182.541 282.973 182.922C282.732 183.3 282.398 183.595 281.972 183.808C281.546 184.021 281.042 184.128 280.459 184.128ZM284.545 184V177.455H286.36V184H284.545ZM285.457 176.611C285.187 176.611 284.955 176.521 284.762 176.342C284.572 176.161 284.477 175.943 284.477 175.69C284.477 175.44 284.572 175.226 284.762 175.047C284.955 174.865 285.187 174.774 285.457 174.774C285.727 174.774 285.957 174.865 286.147 175.047C286.34 175.226 286.437 175.44 286.437 175.69C286.437 175.943 286.34 176.161 286.147 176.342C285.957 176.521 285.727 176.611 285.457 176.611ZM289.63 180.216V184H287.814V177.455H289.544V178.609H289.621C289.766 178.229 290.009 177.928 290.35 177.706C290.691 177.482 291.104 177.369 291.59 177.369C292.044 177.369 292.441 177.469 292.779 177.668C293.117 177.866 293.38 178.151 293.567 178.52C293.755 178.886 293.848 179.324 293.848 179.832V184H292.033V180.156C292.036 179.756 291.934 179.443 291.726 179.219C291.519 178.991 291.233 178.878 290.87 178.878C290.625 178.878 290.409 178.93 290.222 179.036C290.037 179.141 289.892 179.294 289.787 179.496C289.685 179.695 289.632 179.935 289.63 180.216ZM298.228 186.591C297.64 186.591 297.136 186.51 296.715 186.348C296.298 186.189 295.965 185.972 295.718 185.696C295.471 185.42 295.31 185.111 295.237 184.767L296.915 184.541C296.967 184.672 297.048 184.794 297.158 184.908C297.269 185.021 297.415 185.112 297.597 185.18C297.782 185.251 298.006 185.287 298.271 185.287C298.665 185.287 298.991 185.19 299.246 184.997C299.505 184.807 299.634 184.487 299.634 184.038V182.841H299.558C299.478 183.023 299.359 183.195 299.2 183.357C299.04 183.518 298.836 183.651 298.586 183.753C298.336 183.855 298.038 183.906 297.691 183.906C297.2 183.906 296.752 183.793 296.349 183.565C295.948 183.335 295.629 182.984 295.39 182.513C295.154 182.038 295.036 181.439 295.036 180.714C295.036 179.973 295.157 179.354 295.398 178.857C295.64 178.359 295.961 177.987 296.362 177.74C296.765 177.493 297.207 177.369 297.687 177.369C298.053 177.369 298.36 177.432 298.607 177.557C298.854 177.679 299.053 177.832 299.204 178.017C299.357 178.199 299.475 178.378 299.558 178.554H299.626V177.455H301.428V184.064C301.428 184.621 301.292 185.087 301.019 185.462C300.746 185.837 300.369 186.118 299.886 186.305C299.406 186.496 298.853 186.591 298.228 186.591ZM298.266 182.543C298.559 182.543 298.806 182.47 299.008 182.325C299.212 182.178 299.369 181.967 299.477 181.695C299.587 181.419 299.643 181.089 299.643 180.706C299.643 180.322 299.589 179.99 299.481 179.709C299.373 179.425 299.217 179.205 299.012 179.048C298.808 178.892 298.559 178.814 298.266 178.814C297.968 178.814 297.717 178.895 297.512 179.057C297.308 179.216 297.153 179.437 297.048 179.722C296.942 180.006 296.89 180.334 296.89 180.706C296.89 181.084 296.942 181.411 297.048 181.686C297.156 181.959 297.31 182.17 297.512 182.321C297.717 182.469 297.968 182.543 298.266 182.543Z" fill="white"/>
<path d="M272.17 190.321L270.509 190.423C270.48 190.281 270.419 190.153 270.325 190.04C270.232 189.923 270.108 189.831 269.955 189.763C269.804 189.692 269.624 189.656 269.413 189.656C269.132 189.656 268.895 189.716 268.702 189.835C268.509 189.952 268.412 190.108 268.412 190.304C268.412 190.46 268.474 190.592 268.599 190.7C268.724 190.808 268.939 190.895 269.243 190.96L270.428 191.199C271.064 191.33 271.538 191.54 271.851 191.83C272.163 192.119 272.32 192.5 272.32 192.972C272.32 193.401 272.193 193.777 271.94 194.101C271.69 194.425 271.347 194.678 270.909 194.859C270.474 195.038 269.973 195.128 269.405 195.128C268.538 195.128 267.848 194.947 267.334 194.587C266.822 194.223 266.523 193.729 266.435 193.104L268.22 193.01C268.274 193.274 268.405 193.476 268.612 193.615C268.82 193.751 269.085 193.82 269.409 193.82C269.727 193.82 269.983 193.759 270.176 193.636C270.372 193.511 270.472 193.351 270.474 193.155C270.472 192.99 270.402 192.855 270.266 192.75C270.129 192.642 269.919 192.56 269.635 192.503L268.501 192.277C267.862 192.149 267.386 191.928 267.074 191.612C266.764 191.297 266.609 190.895 266.609 190.406C266.609 189.986 266.723 189.624 266.95 189.32C267.18 189.016 267.503 188.781 267.918 188.616C268.335 188.452 268.824 188.369 269.384 188.369C270.21 188.369 270.861 188.544 271.335 188.893C271.813 189.243 272.091 189.719 272.17 190.321ZM276.944 188.455V189.818H273.002V188.455H276.944ZM273.897 186.886H275.713V192.989C275.713 193.156 275.738 193.287 275.789 193.381C275.841 193.472 275.912 193.536 276.002 193.572C276.096 193.609 276.204 193.628 276.326 193.628C276.412 193.628 276.497 193.621 276.582 193.607C276.667 193.589 276.733 193.577 276.778 193.568L277.064 194.919C276.973 194.947 276.845 194.98 276.68 195.017C276.515 195.057 276.315 195.081 276.079 195.089C275.642 195.107 275.258 195.048 274.929 194.915C274.602 194.781 274.348 194.574 274.166 194.293C273.984 194.011 273.895 193.656 273.897 193.227V186.886ZM281.014 195.128C280.352 195.128 279.779 194.987 279.297 194.706C278.816 194.422 278.446 194.027 278.184 193.521C277.923 193.013 277.792 192.423 277.792 191.753C277.792 191.077 277.923 190.486 278.184 189.98C278.446 189.472 278.816 189.077 279.297 188.795C279.779 188.511 280.352 188.369 281.014 188.369C281.676 188.369 282.247 188.511 282.727 188.795C283.21 189.077 283.582 189.472 283.843 189.98C284.105 190.486 284.235 191.077 284.235 191.753C284.235 192.423 284.105 193.013 283.843 193.521C283.582 194.027 283.21 194.422 282.727 194.706C282.247 194.987 281.676 195.128 281.014 195.128ZM281.022 193.722C281.324 193.722 281.575 193.636 281.777 193.466C281.978 193.293 282.13 193.057 282.233 192.759C282.338 192.46 282.39 192.121 282.39 191.74C282.39 191.359 282.338 191.02 282.233 190.722C282.13 190.423 281.978 190.187 281.777 190.014C281.575 189.841 281.324 189.754 281.022 189.754C280.718 189.754 280.463 189.841 280.255 190.014C280.051 190.187 279.896 190.423 279.791 190.722C279.689 191.02 279.637 191.359 279.637 191.74C279.637 192.121 279.689 192.46 279.791 192.759C279.896 193.057 280.051 193.293 280.255 193.466C280.463 193.636 280.718 193.722 281.022 193.722ZM285.416 197.455V188.455H287.206V189.554H287.287C287.366 189.378 287.481 189.199 287.632 189.017C287.785 188.832 287.984 188.679 288.228 188.557C288.475 188.432 288.782 188.369 289.149 188.369C289.626 188.369 290.066 188.494 290.47 188.744C290.873 188.991 291.196 189.365 291.437 189.865C291.679 190.362 291.799 190.986 291.799 191.736C291.799 192.466 291.681 193.082 291.446 193.585C291.213 194.085 290.895 194.464 290.491 194.723C290.091 194.979 289.642 195.107 289.145 195.107C288.792 195.107 288.493 195.048 288.245 194.932C288.001 194.815 287.801 194.669 287.645 194.493C287.488 194.314 287.369 194.134 287.287 193.952H287.231V197.455H285.416ZM287.193 191.727C287.193 192.116 287.247 192.456 287.355 192.746C287.463 193.036 287.619 193.261 287.824 193.423C288.028 193.582 288.277 193.662 288.569 193.662C288.865 193.662 289.115 193.581 289.319 193.419C289.524 193.254 289.679 193.027 289.784 192.737C289.892 192.445 289.946 192.108 289.946 191.727C289.946 191.349 289.893 191.017 289.788 190.73C289.683 190.443 289.528 190.219 289.324 190.057C289.119 189.895 288.868 189.814 288.569 189.814C288.274 189.814 288.024 189.892 287.819 190.048C287.618 190.205 287.463 190.426 287.355 190.713C287.247 191 287.193 191.338 287.193 191.727ZM298.456 190.321L296.794 190.423C296.765 190.281 296.704 190.153 296.61 190.04C296.517 189.923 296.393 189.831 296.24 189.763C296.089 189.692 295.909 189.656 295.699 189.656C295.417 189.656 295.18 189.716 294.987 189.835C294.794 189.952 294.697 190.108 294.697 190.304C294.697 190.46 294.76 190.592 294.885 190.7C295.01 190.808 295.224 190.895 295.528 190.96L296.713 191.199C297.349 191.33 297.824 191.54 298.136 191.83C298.449 192.119 298.605 192.5 298.605 192.972C298.605 193.401 298.478 193.777 298.225 194.101C297.975 194.425 297.632 194.678 297.194 194.859C296.76 195.038 296.258 195.128 295.69 195.128C294.824 195.128 294.133 194.947 293.619 194.587C293.108 194.223 292.808 193.729 292.72 193.104L294.505 193.01C294.559 193.274 294.69 193.476 294.897 193.615C295.105 193.751 295.37 193.82 295.694 193.82C296.012 193.82 296.268 193.759 296.461 193.636C296.657 193.511 296.757 193.351 296.76 193.155C296.757 192.99 296.687 192.855 296.551 192.75C296.414 192.642 296.204 192.56 295.92 192.503L294.787 192.277C294.147 192.149 293.672 191.928 293.359 191.612C293.049 191.297 292.895 190.895 292.895 190.406C292.895 189.986 293.008 189.624 293.235 189.32C293.466 189.016 293.788 188.781 294.203 188.616C294.62 188.452 295.109 188.369 295.669 188.369C296.495 188.369 297.146 188.544 297.62 188.893C298.098 189.243 298.376 189.719 298.456 190.321Z" fill="white"/>
<path d="M321 196.333C319.527 196.333 318.333 197.527 318.333 199C318.333 200.473 319.527 201.667 321 201.667C322.473 201.667 323.667 200.473 323.667 199C323.667 197.527 322.473 196.333 321 196.333ZM320.5 154L320.5 199L321.5 199L321.5 154L320.5 154Z" fill="white"/>
<path d="M297.67 211.321L296.009 211.423C295.98 211.281 295.919 211.153 295.825 211.04C295.732 210.923 295.608 210.831 295.455 210.763C295.304 210.692 295.124 210.656 294.913 210.656C294.632 210.656 294.395 210.716 294.202 210.835C294.009 210.952 293.912 211.108 293.912 211.304C293.912 211.46 293.974 211.592 294.099 211.7C294.224 211.808 294.439 211.895 294.743 211.96L295.928 212.199C296.564 212.33 297.038 212.54 297.351 212.83C297.663 213.119 297.82 213.5 297.82 213.972C297.82 214.401 297.693 214.777 297.44 215.101C297.19 215.425 296.847 215.678 296.409 215.859C295.974 216.038 295.473 216.128 294.905 216.128C294.038 216.128 293.348 215.947 292.834 215.587C292.322 215.223 292.023 214.729 291.935 214.104L293.72 214.01C293.774 214.274 293.905 214.476 294.112 214.615C294.32 214.751 294.585 214.82 294.909 214.82C295.227 214.82 295.483 214.759 295.676 214.636C295.872 214.511 295.972 214.351 295.974 214.155C295.972 213.99 295.902 213.855 295.766 213.75C295.629 213.642 295.419 213.56 295.135 213.503L294.001 213.277C293.362 213.149 292.886 212.928 292.574 212.612C292.264 212.297 292.109 211.895 292.109 211.406C292.109 210.986 292.223 210.624 292.45 210.32C292.68 210.016 293.003 209.781 293.418 209.616C293.835 209.452 294.324 209.369 294.884 209.369C295.71 209.369 296.361 209.544 296.835 209.893C297.313 210.243 297.591 210.719 297.67 211.321ZM301.946 216.128C301.272 216.128 300.693 215.991 300.207 215.719C299.724 215.443 299.352 215.054 299.091 214.551C298.829 214.045 298.699 213.447 298.699 212.757C298.699 212.084 298.829 211.493 299.091 210.984C299.352 210.476 299.72 210.08 300.194 209.795C300.672 209.511 301.231 209.369 301.873 209.369C302.305 209.369 302.707 209.439 303.079 209.578C303.454 209.714 303.781 209.92 304.059 210.196C304.341 210.472 304.559 210.818 304.716 211.236C304.872 211.651 304.95 212.136 304.95 212.693V213.192H299.423V212.067H303.241C303.241 211.805 303.184 211.574 303.071 211.372C302.957 211.17 302.799 211.013 302.598 210.899C302.399 210.783 302.167 210.724 301.903 210.724C301.627 210.724 301.383 210.788 301.17 210.916C300.96 211.041 300.795 211.21 300.676 211.423C300.556 211.634 300.495 211.868 300.493 212.126V213.196C300.493 213.52 300.552 213.8 300.672 214.036C300.794 214.271 300.966 214.453 301.187 214.581C301.409 214.709 301.672 214.773 301.975 214.773C302.177 214.773 302.362 214.744 302.529 214.688C302.697 214.631 302.841 214.545 302.96 214.432C303.079 214.318 303.17 214.179 303.233 214.014L304.912 214.125C304.826 214.528 304.652 214.881 304.387 215.182C304.126 215.48 303.788 215.713 303.373 215.881C302.961 216.045 302.485 216.128 301.946 216.128ZM308.001 216.124C307.583 216.124 307.211 216.051 306.885 215.906C306.558 215.759 306.299 215.541 306.109 215.254C305.922 214.964 305.828 214.604 305.828 214.172C305.828 213.808 305.895 213.503 306.028 213.256C306.162 213.009 306.343 212.81 306.574 212.659C306.804 212.509 307.065 212.395 307.358 212.318C307.653 212.241 307.963 212.188 308.287 212.156C308.667 212.116 308.974 212.08 309.207 212.045C309.44 212.009 309.609 211.955 309.714 211.884C309.819 211.812 309.872 211.707 309.872 211.568V211.543C309.872 211.273 309.787 211.064 309.616 210.916C309.449 210.768 309.21 210.695 308.9 210.695C308.574 210.695 308.314 210.767 308.12 210.912C307.927 211.054 307.799 211.233 307.737 211.449L306.058 211.312C306.143 210.915 306.311 210.571 306.561 210.281C306.811 209.989 307.133 209.764 307.528 209.608C307.926 209.449 308.386 209.369 308.909 209.369C309.272 209.369 309.62 209.412 309.953 209.497C310.288 209.582 310.585 209.714 310.843 209.893C311.105 210.072 311.311 210.303 311.461 210.584C311.612 210.862 311.687 211.196 311.687 211.585V216H309.966V215.092H309.914C309.809 215.297 309.669 215.477 309.493 215.634C309.316 215.787 309.105 215.908 308.858 215.996C308.61 216.081 308.325 216.124 308.001 216.124ZM308.521 214.871C308.788 214.871 309.024 214.818 309.228 214.713C309.433 214.605 309.593 214.46 309.71 214.278C309.826 214.097 309.885 213.891 309.885 213.661V212.966C309.828 213.003 309.75 213.037 309.65 213.068C309.554 213.097 309.444 213.124 309.322 213.149C309.2 213.172 309.078 213.193 308.956 213.213C308.833 213.23 308.723 213.246 308.623 213.26C308.41 213.291 308.224 213.341 308.065 213.409C307.906 213.477 307.782 213.57 307.694 213.686C307.606 213.8 307.562 213.942 307.562 214.112C307.562 214.359 307.652 214.548 307.831 214.679C308.012 214.807 308.243 214.871 308.521 214.871ZM313.096 216V209.455H314.855V210.597H314.924C315.043 210.19 315.243 209.884 315.525 209.676C315.806 209.466 316.13 209.361 316.496 209.361C316.587 209.361 316.685 209.366 316.79 209.378C316.895 209.389 316.988 209.405 317.067 209.425V211.036C316.982 211.01 316.864 210.987 316.713 210.967C316.563 210.947 316.425 210.938 316.3 210.938C316.033 210.938 315.794 210.996 315.584 211.112C315.377 211.226 315.212 211.385 315.09 211.589C314.971 211.794 314.911 212.03 314.911 212.297V216H313.096ZM320.658 216.128C319.988 216.128 319.411 215.986 318.928 215.702C318.448 215.415 318.079 215.017 317.82 214.509C317.565 214 317.437 213.415 317.437 212.753C317.437 212.082 317.566 211.494 317.825 210.989C318.086 210.48 318.457 210.084 318.937 209.8C319.417 209.513 319.988 209.369 320.65 209.369C321.221 209.369 321.721 209.473 322.15 209.68C322.579 209.888 322.918 210.179 323.168 210.554C323.418 210.929 323.556 211.369 323.582 211.875H321.869C321.82 211.548 321.692 211.286 321.485 211.087C321.281 210.885 321.012 210.784 320.68 210.784C320.398 210.784 320.153 210.861 319.942 211.014C319.735 211.165 319.573 211.385 319.457 211.675C319.34 211.964 319.282 212.315 319.282 212.727C319.282 213.145 319.339 213.5 319.452 213.793C319.569 214.085 319.732 214.308 319.942 214.462C320.153 214.615 320.398 214.692 320.68 214.692C320.887 214.692 321.073 214.649 321.238 214.564C321.406 214.479 321.543 214.355 321.651 214.193C321.762 214.028 321.835 213.831 321.869 213.601H323.582C323.553 214.101 323.417 214.541 323.173 214.922C322.931 215.3 322.597 215.595 322.171 215.808C321.745 216.021 321.241 216.128 320.658 216.128ZM326.559 212.216V216H324.744V207.273H326.508V210.609H326.585C326.733 210.223 326.971 209.92 327.301 209.702C327.63 209.48 328.044 209.369 328.541 209.369C328.995 209.369 329.392 209.469 329.73 209.668C330.071 209.864 330.335 210.146 330.522 210.516C330.713 210.882 330.806 211.321 330.804 211.832V216H328.988V212.156C328.991 211.753 328.889 211.439 328.681 211.214C328.477 210.99 328.19 210.878 327.821 210.878C327.574 210.878 327.355 210.93 327.164 211.036C326.977 211.141 326.829 211.294 326.721 211.496C326.616 211.695 326.562 211.935 326.559 212.216ZM332.232 216V209.455H334.048V216H332.232ZM333.144 208.611C332.874 208.611 332.643 208.521 332.45 208.342C332.259 208.161 332.164 207.943 332.164 207.69C332.164 207.44 332.259 207.226 332.45 207.047C332.643 206.865 332.874 206.774 333.144 206.774C333.414 206.774 333.644 206.865 333.835 207.047C334.028 207.226 334.124 207.44 334.124 207.69C334.124 207.943 334.028 208.161 333.835 208.342C333.644 208.521 333.414 208.611 333.144 208.611ZM337.317 212.216V216H335.502V209.455H337.232V210.609H337.309C337.453 210.229 337.696 209.928 338.037 209.706C338.378 209.482 338.792 209.369 339.277 209.369C339.732 209.369 340.128 209.469 340.466 209.668C340.804 209.866 341.067 210.151 341.255 210.52C341.442 210.886 341.536 211.324 341.536 211.832V216H339.721V212.156C339.723 211.756 339.621 211.443 339.414 211.219C339.206 210.991 338.921 210.878 338.557 210.878C338.313 210.878 338.097 210.93 337.909 211.036C337.725 211.141 337.58 211.294 337.475 211.496C337.373 211.695 337.32 211.935 337.317 212.216ZM345.915 218.591C345.327 218.591 344.823 218.51 344.403 218.348C343.985 218.189 343.653 217.972 343.406 217.696C343.158 217.42 342.998 217.111 342.924 216.767L344.603 216.541C344.654 216.672 344.735 216.794 344.846 216.908C344.957 217.021 345.103 217.112 345.285 217.18C345.469 217.251 345.694 217.287 345.958 217.287C346.353 217.287 346.678 217.19 346.934 216.997C347.192 216.807 347.322 216.487 347.322 216.038V214.841H347.245C347.165 215.023 347.046 215.195 346.887 215.357C346.728 215.518 346.523 215.651 346.273 215.753C346.023 215.855 345.725 215.906 345.379 215.906C344.887 215.906 344.44 215.793 344.036 215.565C343.636 215.335 343.316 214.984 343.077 214.513C342.842 214.038 342.724 213.439 342.724 212.714C342.724 211.973 342.844 211.354 343.086 210.857C343.327 210.359 343.648 209.987 344.049 209.74C344.452 209.493 344.894 209.369 345.374 209.369C345.741 209.369 346.048 209.432 346.295 209.557C346.542 209.679 346.741 209.832 346.891 210.017C347.045 210.199 347.163 210.378 347.245 210.554H347.313V209.455H349.116V216.064C349.116 216.621 348.979 217.087 348.707 217.462C348.434 217.837 348.056 218.118 347.573 218.305C347.093 218.496 346.54 218.591 345.915 218.591ZM345.954 214.543C346.246 214.543 346.494 214.47 346.695 214.325C346.9 214.178 347.056 213.967 347.164 213.695C347.275 213.419 347.33 213.089 347.33 212.706C347.33 212.322 347.276 211.99 347.168 211.709C347.06 211.425 346.904 211.205 346.7 211.048C346.495 210.892 346.246 210.814 345.954 210.814C345.656 210.814 345.404 210.895 345.2 211.057C344.995 211.216 344.84 211.437 344.735 211.722C344.63 212.006 344.577 212.334 344.577 212.706C344.577 213.084 344.63 213.411 344.735 213.686C344.843 213.959 344.998 214.17 345.2 214.321C345.404 214.469 345.656 214.543 345.954 214.543Z" fill="white"/>
<path d="M310.17 222.321L308.509 222.423C308.48 222.281 308.419 222.153 308.325 222.04C308.232 221.923 308.108 221.831 307.955 221.763C307.804 221.692 307.624 221.656 307.413 221.656C307.132 221.656 306.895 221.716 306.702 221.835C306.509 221.952 306.412 222.108 306.412 222.304C306.412 222.46 306.474 222.592 306.599 222.7C306.724 222.808 306.939 222.895 307.243 222.96L308.428 223.199C309.064 223.33 309.538 223.54 309.851 223.83C310.163 224.119 310.32 224.5 310.32 224.972C310.32 225.401 310.193 225.777 309.94 226.101C309.69 226.425 309.347 226.678 308.909 226.859C308.474 227.038 307.973 227.128 307.405 227.128C306.538 227.128 305.848 226.947 305.334 226.587C304.822 226.223 304.523 225.729 304.435 225.104L306.22 225.01C306.274 225.274 306.405 225.476 306.612 225.615C306.82 225.751 307.085 225.82 307.409 225.82C307.727 225.82 307.983 225.759 308.176 225.636C308.372 225.511 308.472 225.351 308.474 225.155C308.472 224.99 308.402 224.855 308.266 224.75C308.129 224.642 307.919 224.56 307.635 224.503L306.501 224.277C305.862 224.149 305.386 223.928 305.074 223.612C304.764 223.297 304.609 222.895 304.609 222.406C304.609 221.986 304.723 221.624 304.95 221.32C305.18 221.016 305.503 220.781 305.918 220.616C306.335 220.452 306.824 220.369 307.384 220.369C308.21 220.369 308.861 220.544 309.335 220.893C309.813 221.243 310.091 221.719 310.17 222.321ZM314.944 220.455V221.818H311.002V220.455H314.944ZM311.897 218.886H313.713V224.989C313.713 225.156 313.738 225.287 313.789 225.381C313.841 225.472 313.912 225.536 314.002 225.572C314.096 225.609 314.204 225.628 314.326 225.628C314.412 225.628 314.497 225.621 314.582 225.607C314.667 225.589 314.733 225.577 314.778 225.568L315.064 226.919C314.973 226.947 314.845 226.98 314.68 227.017C314.515 227.057 314.315 227.081 314.079 227.089C313.642 227.107 313.258 227.048 312.929 226.915C312.602 226.781 312.348 226.574 312.166 226.293C311.984 226.011 311.895 225.656 311.897 225.227V218.886ZM319.014 227.128C318.352 227.128 317.779 226.987 317.297 226.706C316.816 226.422 316.446 226.027 316.184 225.521C315.923 225.013 315.792 224.423 315.792 223.753C315.792 223.077 315.923 222.486 316.184 221.98C316.446 221.472 316.816 221.077 317.297 220.795C317.779 220.511 318.352 220.369 319.014 220.369C319.676 220.369 320.247 220.511 320.727 220.795C321.21 221.077 321.582 221.472 321.843 221.98C322.105 222.486 322.235 223.077 322.235 223.753C322.235 224.423 322.105 225.013 321.843 225.521C321.582 226.027 321.21 226.422 320.727 226.706C320.247 226.987 319.676 227.128 319.014 227.128ZM319.022 225.722C319.324 225.722 319.575 225.636 319.777 225.466C319.978 225.293 320.13 225.057 320.233 224.759C320.338 224.46 320.39 224.121 320.39 223.74C320.39 223.359 320.338 223.02 320.233 222.722C320.13 222.423 319.978 222.187 319.777 222.014C319.575 221.841 319.324 221.754 319.022 221.754C318.718 221.754 318.463 221.841 318.255 222.014C318.051 222.187 317.896 222.423 317.791 222.722C317.689 223.02 317.637 223.359 317.637 223.74C317.637 224.121 317.689 224.46 317.791 224.759C317.896 225.057 318.051 225.293 318.255 225.466C318.463 225.636 318.718 225.722 319.022 225.722ZM323.416 229.455V220.455H325.206V221.554H325.287C325.366 221.378 325.481 221.199 325.632 221.017C325.785 220.832 325.984 220.679 326.228 220.557C326.475 220.432 326.782 220.369 327.149 220.369C327.626 220.369 328.066 220.494 328.47 220.744C328.873 220.991 329.196 221.365 329.437 221.865C329.679 222.362 329.799 222.986 329.799 223.736C329.799 224.466 329.681 225.082 329.446 225.585C329.213 226.085 328.895 226.464 328.491 226.723C328.091 226.979 327.642 227.107 327.145 227.107C326.792 227.107 326.493 227.048 326.245 226.932C326.001 226.815 325.801 226.669 325.645 226.493C325.488 226.314 325.369 226.134 325.287 225.952H325.231V229.455H323.416ZM325.193 223.727C325.193 224.116 325.247 224.456 325.355 224.746C325.463 225.036 325.619 225.261 325.824 225.423C326.028 225.582 326.277 225.662 326.569 225.662C326.865 225.662 327.115 225.581 327.319 225.419C327.524 225.254 327.679 225.027 327.784 224.737C327.892 224.445 327.946 224.108 327.946 223.727C327.946 223.349 327.893 223.017 327.788 222.73C327.683 222.443 327.528 222.219 327.324 222.057C327.119 221.895 326.868 221.814 326.569 221.814C326.274 221.814 326.024 221.892 325.819 222.048C325.618 222.205 325.463 222.426 325.355 222.713C325.247 223 325.193 223.338 325.193 223.727ZM336.456 222.321L334.794 222.423C334.765 222.281 334.704 222.153 334.61 222.04C334.517 221.923 334.393 221.831 334.24 221.763C334.089 221.692 333.909 221.656 333.699 221.656C333.417 221.656 333.18 221.716 332.987 221.835C332.794 221.952 332.697 222.108 332.697 222.304C332.697 222.46 332.76 222.592 332.885 222.7C333.01 222.808 333.224 222.895 333.528 222.96L334.713 223.199C335.349 223.33 335.824 223.54 336.136 223.83C336.449 224.119 336.605 224.5 336.605 224.972C336.605 225.401 336.478 225.777 336.225 226.101C335.975 226.425 335.632 226.678 335.194 226.859C334.76 227.038 334.258 227.128 333.69 227.128C332.824 227.128 332.133 226.947 331.619 226.587C331.108 226.223 330.808 225.729 330.72 225.104L332.505 225.01C332.559 225.274 332.69 225.476 332.897 225.615C333.105 225.751 333.37 225.82 333.694 225.82C334.012 225.82 334.268 225.759 334.461 225.636C334.657 225.511 334.757 225.351 334.76 225.155C334.757 224.99 334.687 224.855 334.551 224.75C334.414 224.642 334.204 224.56 333.92 224.503L332.787 224.277C332.147 224.149 331.672 223.928 331.359 223.612C331.049 223.297 330.895 222.895 330.895 222.406C330.895 221.986 331.008 221.624 331.235 221.32C331.466 221.016 331.788 220.781 332.203 220.616C332.62 220.452 333.109 220.369 333.669 220.369C334.495 220.369 335.146 220.544 335.62 220.893C336.098 221.243 336.376 221.719 336.456 222.321Z" fill="white"/>
</svg>
