<svg width="128" height="128" viewBox="0 0 128 128" fill="none" xmlns="http://www.w3.org/2000/svg">
<g clip-path="url(#clip0_58_6)">
<path fill-rule="evenodd" clip-rule="evenodd" d="M42.4718 38.6742C41.9349 41.891 41.5552 46.1198 41.3746 51.1876C41.116 58.4482 41.2861 66.5802 41.6433 74.2898C41.9994 81.9744 42.5346 89.1015 42.982 94.3144C43.2054 96.9169 43.4061 99.0329 43.5501 100.491C43.6222 101.22 43.68 101.785 43.7194 102.163L43.764 102.587L43.7778 102.715C44.4412 108.802 40.028 114.273 33.9201 114.935C27.8119 115.597 22.322 111.198 21.6581 105.111L32.718 103.913C21.6581 105.111 21.6582 105.112 21.6581 105.111L21.6388 104.931C21.627 104.821 21.61 104.66 21.5884 104.453C21.5451 104.038 21.4833 103.434 21.4072 102.664C21.255 101.123 21.0454 98.9121 20.813 96.2041C20.3488 90.7958 19.7902 83.3669 19.417 75.3126C19.0449 67.2834 18.8504 58.4935 19.1387 50.4009C19.4181 42.557 20.1718 34.4396 22.0834 28.2379L22.9952 25.2796L25.3127 23.2197L32.718 31.4935C25.3127 23.2197 25.3184 23.2145 25.3242 23.2094L25.336 23.1989L25.3603 23.1776L25.4114 23.1329C25.4466 23.1023 25.4841 23.0701 25.5239 23.0362C25.6036 22.9685 25.6926 22.8944 25.7912 22.8143C25.9883 22.6543 26.2235 22.4708 26.4984 22.2678C27.0485 21.8615 27.7559 21.3783 28.6341 20.8491C30.3938 19.7886 32.819 18.5552 36.0119 17.3848C42.4134 15.0383 51.7475 13 64.7965 13C78.6674 13 89.5643 16.7734 97.1396 23.497C104.696 30.2036 108 39.0416 108 47.1296C108 52.751 104.929 56.6868 102.225 58.9569C99.6749 61.0967 96.6838 62.467 94.2663 63.3945C89.9319 65.0574 84.4856 66.3502 79.8814 67.4431C79.3538 67.5683 78.8373 67.691 78.3347 67.8112C74.7476 68.6695 71.6997 69.4424 69.2275 70.2316C72.3602 72.714 76.5967 75.4027 81.2208 78.0131C86.1972 80.8224 91.2267 83.3213 95.0453 85.1302C96.9451 86.0301 98.5234 86.7489 99.6176 87.2388C100.164 87.4836 100.589 87.6706 100.871 87.794C101.012 87.8556 101.117 87.9013 101.184 87.9303L101.267 87.9663C106.911 90.3845 109.522 96.9048 107.096 102.53C104.67 108.156 98.1275 110.756 92.4825 108.339L96.875 98.1525C92.4825 108.339 92.4812 108.338 92.4798 108.338L92.4332 108.317L92.3233 108.27C92.2303 108.23 92.0982 108.172 91.9295 108.099C91.5923 107.951 91.1086 107.738 90.4993 107.465C89.2816 106.92 87.5571 106.134 85.4937 105.157C81.3857 103.211 75.8465 100.464 70.2541 97.3065C64.7511 94.1999 58.7829 90.467 54.0502 86.5054C51.693 84.5323 49.2892 82.2127 47.3926 79.5914C45.5865 77.0951 43.475 73.2727 43.475 68.5261C43.475 58.0761 52.469 53.1817 56.6212 51.3102C61.7144 49.0147 68.058 47.4661 73.1402 46.25C73.5804 46.1447 74.0125 46.0416 74.4368 45.9403C78.6722 44.9292 82.1183 44.1066 84.8044 43.2214C84.2659 42.1397 83.4688 41.0563 82.3416 40.0558C79.8142 37.8127 74.6719 35.1739 64.7965 35.1739C54.0991 35.1739 47.3939 36.8389 43.6928 38.1956C43.2447 38.3599 42.8383 38.5205 42.4718 38.6742ZM65.2714 66.3627C65.2733 66.363 65.2898 66.3892 65.3157 66.4405C65.2825 66.3881 65.2696 66.3625 65.2714 66.3627ZM64.343 72.2612C64.2048 72.3903 64.1097 72.4508 64.0968 72.4487C64.0838 72.4467 64.1529 72.3822 64.343 72.2612Z" fill="url(#paint0_linear_58_6)"/>
</g>
<defs>
<linearGradient id="paint0_linear_58_6" x1="29.0125" y1="25.1957" x2="96.6076" y2="104.142" gradientUnits="userSpaceOnUse">
<stop stop-color="#0094FF"/>
<stop offset="1" stop-color="#00FFD1"/>
</linearGradient>
<clipPath id="clip0_58_6">
<rect width="89" height="102" fill="white" transform="translate(19 13)"/>
</clipPath>
</defs>
</svg>
