<svg width="34" height="38" viewBox="0 0 34 38" fill="none" xmlns="http://www.w3.org/2000/svg">
<g clip-path="url(#clip0_61_69)">
<path fill-rule="evenodd" clip-rule="evenodd" d="M8.96676 9.5649C8.76165 10.7633 8.61659 12.3387 8.54762 14.2268C8.4488 16.9317 8.51377 19.9612 8.65024 22.8335C8.78627 25.6964 8.99076 28.3515 9.16168 30.2936C9.24701 31.2632 9.32367 32.0515 9.37871 32.5948C9.40622 32.8665 9.42831 33.0766 9.44335 33.2174L9.46042 33.3754L9.46568 33.4232C9.7191 35.6909 8.03316 37.7293 5.69982 37.9758C3.36635 38.2223 1.26909 36.5837 1.01545 34.3159L5.24057 33.8696C1.01545 34.3159 1.0155 34.3163 1.01545 34.3159L1.00807 34.2489C1.00356 34.2077 0.997075 34.148 0.988815 34.0707C0.972297 33.9161 0.948677 33.6912 0.919598 33.4042C0.861456 32.8301 0.781398 32.0065 0.692606 30.9976C0.515276 28.9827 0.301864 26.2151 0.159292 23.2145C0.0171628 20.2232 -0.0571681 16.9485 0.0529688 13.9337C0.159721 11.0114 0.447667 7.98729 1.17792 5.67688L1.52627 4.57477L2.41158 3.80732L5.24057 6.88974C2.41158 3.80732 2.41378 3.80541 2.416 3.80349L2.42051 3.7996L2.42977 3.79164L2.44928 3.77501C2.46273 3.76361 2.47706 3.75159 2.49228 3.73897C2.52273 3.71374 2.55673 3.68613 2.59439 3.65632C2.6697 3.5967 2.75953 3.52834 2.86455 3.4527C3.07471 3.30134 3.34495 3.12134 3.68044 2.92416C4.35267 2.52909 5.27917 2.06959 6.49891 1.63357C8.94444 0.759356 12.5103 0 17.4953 0C22.7943 0 26.9571 1.40578 29.8511 3.91064C32.7377 6.40919 34 9.70176 34 12.715C34 14.8092 32.827 16.2755 31.7937 17.1212C30.8196 17.9184 29.677 18.4289 28.7534 18.7744C27.0976 19.3939 25.017 19.8756 23.2581 20.2827C23.0565 20.3294 22.8592 20.3751 22.6672 20.4199C21.2969 20.7396 20.1325 21.0276 19.188 21.3216C20.3848 22.2464 22.0032 23.2481 23.7697 24.2206C25.6708 25.2672 27.5922 26.1981 29.051 26.872C29.7768 27.2073 30.3797 27.4751 30.7977 27.6576C31.0066 27.7488 31.1688 27.8185 31.2765 27.8644C31.3304 27.8874 31.3706 27.9044 31.3962 27.9152L31.428 27.9286C33.584 28.8295 34.5813 31.2586 33.6547 33.3543C32.728 35.4501 30.2285 36.419 28.072 35.5183L29.75 31.7235C28.072 35.5183 28.0715 35.5181 28.0709 35.5179L28.0531 35.5104L28.0112 35.4928C27.9756 35.4778 27.9251 35.4564 27.8607 35.4289C27.7319 35.374 27.5471 35.2946 27.3143 35.1929C26.8491 34.9898 26.1904 34.6971 25.4021 34.333C23.8327 33.608 21.7166 32.5845 19.5802 31.4083C17.4779 30.2509 15.198 28.8602 13.39 27.3844C12.4895 26.6493 11.5711 25.7851 10.8466 24.8086C10.1567 23.8786 9.34999 22.4545 9.34999 20.6862C9.34999 16.7931 12.7859 14.9696 14.3721 14.2724C16.3179 13.4172 18.7412 12.8403 20.6828 12.3873C20.8509 12.348 21.016 12.3096 21.1781 12.2719C22.7961 11.8952 24.1126 11.5887 25.1387 11.259C24.9331 10.856 24.6285 10.4524 24.1979 10.0796C23.2324 9.24393 21.2679 8.26087 17.4953 8.26087C13.4086 8.26087 10.8471 8.88117 9.4332 9.3866C9.26202 9.4478 9.10675 9.50762 8.96676 9.5649ZM17.6767 19.8802C17.6774 19.8803 17.6838 19.8901 17.6936 19.9092C17.681 19.8897 17.676 19.8801 17.6767 19.8802ZM17.322 22.0777C17.2692 22.1258 17.2329 22.1483 17.228 22.1476C17.223 22.1468 17.2494 22.1228 17.322 22.0777Z" fill="url(#paint0_linear_61_69)"/>
</g>
<defs>
<linearGradient id="paint0_linear_61_69" x1="3.82499" y1="4.54348" x2="28.9026" y2="34.5771" gradientUnits="userSpaceOnUse">
<stop stop-color="#0094FF"/>
<stop offset="1" stop-color="#00FFD1"/>
</linearGradient>
<clipPath id="clip0_61_69">
<rect width="34" height="38" fill="white"/>
</clipPath>
</defs>
</svg>
